999
"DXF R12 Output" (www.mydxf.blogspot.com)
 0 
SECTION
 2 
HEADER
 9 
$ACADVER
 1 
AC1009
 9 
$EXTMIN
 10 
 0 
 20 
 0 
 9 
$EXTMAX
 10 
 8.5 
 20 
 11 
 0 
ENDSEC
 0 
SECTION
 2 
ENTITIES
0
LINE
8
Layer 1
10
480.328000
20
24.555000
11
457.154000
21
-23.407300
0
LINE
8
Layer 1
10
457.154000
20
25.902300
11
439.970000
21
-16.935900
0
LINE
8
Layer 1
10
430.789000
20
27.435000
11
419.280000
21
-12.775900
0
LINE
8
Layer 1
10
404.873000
20
28.394600
11
397.837000
21
-12.220000
0
LINE
8
Layer 1
10
381.928000
20
24.555000
11
380.703000
21
-14.463600
0
LINE
8
Layer 1
10
358.992000
20
13.727500
11
363.739000
21
-16.935900
0
LINE
8
Layer 1
10
341.714000
20
8.085900
11
349.066000
21
-25.597300
0
LINE
8
Layer 1
10
325.549000
20
-1.602780
11
337.391000
21
-32.452500
0
LINE
8
Layer 1
10
312.739000
20
-17.029000
11
325.549000
21
-41.376300
0
LINE
8
Layer 1
10
325.340000
20
-104.425000
11
327.901738
21
-99.562773
0
LINE
8
Layer 1
10
327.901738
20
-99.562773
11
330.623131
21
-94.800381
0
LINE
8
Layer 1
10
330.623131
20
-94.800381
11
333.500604
21
-90.141401
0
LINE
8
Layer 1
10
333.500604
20
-90.141401
11
336.530582
21
-85.589407
0
LINE
8
Layer 1
10
336.530582
20
-85.589407
11
339.709489
21
-81.147975
0
LINE
8
Layer 1
10
339.709489
20
-81.147975
11
343.033750
21
-76.820680
0
LINE
8
Layer 1
10
343.033750
20
-76.820680
11
346.499789
21
-72.611098
0
LINE
8
Layer 1
10
346.499789
20
-72.611098
11
350.104031
21
-68.522805
0
LINE
8
Layer 1
10
350.104031
20
-68.522805
11
353.842902
21
-64.559375
0
LINE
8
Layer 1
10
353.842902
20
-64.559375
11
357.712825
21
-60.724384
0
LINE
8
Layer 1
10
357.712825
20
-60.724384
11
361.710225
21
-57.021408
0
LINE
8
Layer 1
10
361.710225
20
-57.021408
11
365.831527
21
-53.454022
0
LINE
8
Layer 1
10
365.831527
20
-53.454022
11
370.073156
21
-50.025802
0
LINE
8
Layer 1
10
370.073156
20
-50.025802
11
374.431537
21
-46.740322
0
LINE
8
Layer 1
10
374.431537
20
-46.740322
11
378.903093
21
-43.601159
0
LINE
8
Layer 1
10
378.903093
20
-43.601159
11
383.484250
21
-40.611888
0
LINE
8
Layer 1
10
383.484250
20
-40.611888
11
388.171432
21
-37.776083
0
LINE
8
Layer 1
10
388.171432
20
-37.776083
11
392.961065
21
-35.097322
0
LINE
8
Layer 1
10
392.961065
20
-35.097322
11
397.849572
21
-32.579179
0
LINE
8
Layer 1
10
397.849572
20
-32.579179
11
402.833379
21
-30.225229
0
LINE
8
Layer 1
10
402.833379
20
-30.225229
11
407.908910
21
-28.039049
0
LINE
8
Layer 1
10
407.908910
20
-28.039049
11
413.072589
21
-26.024213
0
LINE
8
Layer 1
10
413.072589
20
-26.024213
11
418.320842
21
-24.184297
0
LINE
8
Layer 1
10
418.320842
20
-24.184297
11
423.650094
21
-22.522877
0
LINE
8
Layer 1
10
423.650094
20
-22.522877
11
429.056768
21
-21.043527
0
LINE
8
Layer 1
10
429.056768
20
-21.043527
11
434.537290
21
-19.749823
0
LINE
8
Layer 1
10
434.537290
20
-19.749823
11
440.088083
21
-18.645342
0
LINE
8
Layer 1
10
440.088083
20
-18.645342
11
445.705574
21
-17.733657
0
LINE
8
Layer 1
10
445.705574
20
-17.733657
11
451.386187
21
-17.018345
0
LINE
8
Layer 1
10
451.386187
20
-17.018345
11
457.126345
21
-16.502982
0
LINE
8
Layer 1
10
457.126345
20
-16.502982
11
462.922475
21
-16.191141
0
LINE
8
Layer 1
10
462.922475
20
-16.191141
11
468.771000
21
-16.086400
0
LINE
8
Layer 1
10
468.771000
20
-16.086400
11
568.452000
21
-16.086400
0
LINE
8
Layer 1
10
310.684000
20
-177.167000
11
310.474125
21
-172.006859
0
LINE
8
Layer 1
10
310.474125
20
-172.006859
11
310.054250
21
-166.904375
0
LINE
8
Layer 1
10
310.054250
20
-166.904375
11
309.428500
21
-161.863203
0
LINE
8
Layer 1
10
309.428500
20
-161.863203
11
308.601000
21
-156.887000
0
LINE
8
Layer 1
10
308.601000
20
-156.887000
11
310.109943
21
-154.924848
0
LINE
8
Layer 1
10
310.109943
20
-154.924848
11
311.450734
21
-152.836344
0
LINE
8
Layer 1
10
311.450734
20
-152.836344
11
312.613189
21
-150.631543
0
LINE
8
Layer 1
10
312.613189
20
-150.631543
11
313.587125
21
-148.320500
0
LINE
8
Layer 1
10
313.587125
20
-148.320500
11
314.362357
21
-145.913270
0
LINE
8
Layer 1
10
314.362357
20
-145.913270
11
314.928703
21
-143.419906
0
LINE
8
Layer 1
10
314.928703
20
-143.419906
11
315.275979
21
-140.850465
0
LINE
8
Layer 1
10
315.275979
20
-140.850465
11
315.394000
21
-138.215000
0
LINE
8
Layer 1
10
315.394000
20
-138.215000
11
315.312922
21
-136.024953
0
LINE
8
Layer 1
10
315.312922
20
-136.024953
11
315.073125
21
-133.878125
0
LINE
8
Layer 1
10
315.073125
20
-133.878125
11
314.679766
21
-131.780984
0
LINE
8
Layer 1
10
314.679766
20
-131.780984
11
314.138000
21
-129.740000
0
LINE
8
Layer 1
10
314.138000
20
-129.740000
11
311.700000
21
-129.300000
0
LINE
8
Layer 1
10
311.700000
20
-129.300000
11
311.703000
21
-129.297000
0
LINE
8
Layer 1
10
311.703000
20
-129.297000
11
309.865779
21
-128.752867
0
LINE
8
Layer 1
10
309.865779
20
-128.752867
11
308.175922
21
-127.915250
0
LINE
8
Layer 1
10
308.175922
20
-127.915250
11
306.663510
21
-126.814195
0
LINE
8
Layer 1
10
306.663510
20
-126.814195
11
305.358625
21
-125.479750
0
LINE
8
Layer 1
10
305.358625
20
-125.479750
11
304.291350
21
-123.941961
0
LINE
8
Layer 1
10
304.291350
20
-123.941961
11
303.491766
21
-122.230875
0
LINE
8
Layer 1
10
303.491766
20
-122.230875
11
302.989955
21
-120.376539
0
LINE
8
Layer 1
10
302.989955
20
-120.376539
11
302.816000
21
-118.409000
0
LINE
8
Layer 1
10
302.816000
20
-118.409000
11
303.041877
21
-116.170604
0
LINE
8
Layer 1
10
303.041877
20
-116.170604
11
303.689641
21
-114.085078
0
LINE
8
Layer 1
10
303.689641
20
-114.085078
11
304.714490
21
-112.197295
0
LINE
8
Layer 1
10
304.714490
20
-112.197295
11
306.071625
21
-110.552125
0
LINE
8
Layer 1
10
306.071625
20
-110.552125
11
307.716244
21
-109.194439
0
LINE
8
Layer 1
10
307.716244
20
-109.194439
11
309.603547
21
-108.169109
0
LINE
8
Layer 1
10
309.603547
20
-108.169109
11
311.688732
21
-107.521006
0
LINE
8
Layer 1
10
311.688732
20
-107.521006
11
313.927000
21
-107.295000
0
LINE
8
Layer 1
10
313.927000
20
-107.295000
11
315.267305
21
-107.375195
0
LINE
8
Layer 1
10
315.267305
20
-107.375195
11
316.560313
21
-107.609562
0
LINE
8
Layer 1
10
316.560313
20
-107.609562
11
317.796789
21
-107.988773
0
LINE
8
Layer 1
10
317.796789
20
-107.988773
11
318.967500
21
-108.503500
0
LINE
8
Layer 1
10
318.967500
20
-108.503500
11
321.074687
21
-109.902187
0
LINE
8
Layer 1
10
321.074687
20
-109.902187
11
322.808000
21
-111.731000
0
LINE
8
Layer 1
10
322.808000
20
-111.731000
11
322.822000
21
-111.712000
0
LINE
8
Layer 1
10
322.822000
20
-111.712000
11
323.484016
21
-112.381828
0
LINE
8
Layer 1
10
323.484016
20
-112.381828
11
324.279625
21
-112.893125
0
LINE
8
Layer 1
10
324.279625
20
-112.893125
11
325.182672
21
-113.219359
0
LINE
8
Layer 1
10
325.182672
20
-113.219359
11
326.167000
21
-113.334000
0
LINE
8
Layer 1
10
326.167000
20
-113.334000
11
327.026074
21
-113.247332
0
LINE
8
Layer 1
10
327.026074
20
-113.247332
11
327.826344
21
-112.998781
0
LINE
8
Layer 1
10
327.826344
20
-112.998781
11
328.550629
21
-112.605527
0
LINE
8
Layer 1
10
328.550629
20
-112.605527
11
329.181750
21
-112.084750
0
LINE
8
Layer 1
10
329.181750
20
-112.084750
11
329.702527
21
-111.453629
0
LINE
8
Layer 1
10
329.702527
20
-111.453629
11
330.095781
21
-110.729344
0
LINE
8
Layer 1
10
330.095781
20
-110.729344
11
330.344332
21
-109.929074
0
LINE
8
Layer 1
10
330.344332
20
-109.929074
11
330.431000
21
-109.070000
0
LINE
8
Layer 1
10
330.431000
20
-109.070000
11
330.164484
21
-107.585047
0
LINE
8
Layer 1
10
330.164484
20
-107.585047
11
329.429125
21
-106.326875
0
LINE
8
Layer 1
10
329.429125
20
-106.326875
11
328.321203
21
-105.392516
0
LINE
8
Layer 1
10
328.321203
20
-105.392516
11
326.937000
21
-104.879000
0
LINE
8
Layer 1
10
326.937000
20
-104.879000
11
326.940000
21
-104.876000
0
LINE
8
Layer 1
10
326.940000
20
-104.876000
11
324.434927
21
-104.292053
0
LINE
8
Layer 1
10
324.434927
20
-104.292053
11
322.017170
21
-103.498420
0
LINE
8
Layer 1
10
322.017170
20
-103.498420
11
319.696980
21
-102.505356
0
LINE
8
Layer 1
10
319.696980
20
-102.505356
11
317.484609
21
-101.323113
0
LINE
8
Layer 1
10
317.484609
20
-101.323113
11
315.390311
21
-99.961942
0
LINE
8
Layer 1
10
315.390311
20
-99.961942
11
313.424338
21
-98.432098
0
LINE
8
Layer 1
10
313.424338
20
-98.432098
11
311.596942
21
-96.743833
0
LINE
8
Layer 1
10
311.596942
20
-96.743833
11
309.918375
21
-94.907400
0
LINE
8
Layer 1
10
309.918375
20
-94.907400
11
308.398890
21
-92.933051
0
LINE
8
Layer 1
10
308.398890
20
-92.933051
11
307.048740
21
-90.831039
0
LINE
8
Layer 1
10
307.048740
20
-90.831039
11
305.878177
21
-88.611617
0
LINE
8
Layer 1
10
305.878177
20
-88.611617
11
304.897453
21
-86.285038
0
LINE
8
Layer 1
10
304.897453
20
-86.285038
11
304.116821
21
-83.861553
0
LINE
8
Layer 1
10
304.116821
20
-83.861553
11
303.546533
21
-81.351417
0
LINE
8
Layer 1
10
303.546533
20
-81.351417
11
303.196842
21
-78.764882
0
LINE
8
Layer 1
10
303.196842
20
-78.764882
11
303.078000
21
-76.112200
0
LINE
8
Layer 1
10
303.078000
20
-76.112200
11
303.204840
21
-73.371272
0
LINE
8
Layer 1
10
303.204840
20
-73.371272
11
303.577844
21
-70.701613
0
LINE
8
Layer 1
10
303.577844
20
-70.701613
11
304.185738
21
-68.114434
0
LINE
8
Layer 1
10
304.185738
20
-68.114434
11
305.017250
21
-65.620950
0
LINE
8
Layer 1
10
305.017250
20
-65.620950
11
306.061105
21
-63.232372
0
LINE
8
Layer 1
10
306.061105
20
-63.232372
11
307.306031
21
-60.959912
0
LINE
8
Layer 1
10
307.306031
20
-60.959912
11
308.740754
21
-58.814784
0
LINE
8
Layer 1
10
308.740754
20
-58.814784
11
310.354000
21
-56.808200
0
LINE
8
Layer 1
10
310.354000
20
-56.808200
11
314.724449
21
-51.795437
0
LINE
8
Layer 1
10
314.724449
20
-51.795437
11
319.355309
21
-47.026080
0
LINE
8
Layer 1
10
319.355309
20
-47.026080
11
324.235538
21
-42.511169
0
LINE
8
Layer 1
10
324.235538
20
-42.511169
11
329.354094
21
-38.261741
0
LINE
8
Layer 1
10
329.354094
20
-38.261741
11
334.699935
21
-34.288834
0
LINE
8
Layer 1
10
334.699935
20
-34.288834
11
340.262020
21
-30.603487
0
LINE
8
Layer 1
10
340.262020
20
-30.603487
11
346.029305
21
-27.216738
0
LINE
8
Layer 1
10
346.029305
20
-27.216738
11
351.990750
21
-24.139625
0
LINE
8
Layer 1
10
351.990750
20
-24.139625
11
358.135312
21
-21.383186
0
LINE
8
Layer 1
10
358.135312
20
-21.383186
11
364.451949
21
-18.958460
0
LINE
8
Layer 1
10
364.451949
20
-18.958460
11
370.929620
21
-16.876484
0
LINE
8
Layer 1
10
370.929620
20
-16.876484
11
377.557281
21
-15.148297
0
LINE
8
Layer 1
10
377.557281
20
-15.148297
11
384.323892
21
-13.784937
0
LINE
8
Layer 1
10
384.323892
20
-13.784937
11
391.218410
21
-12.797442
0
LINE
8
Layer 1
10
391.218410
20
-12.797442
11
398.229793
21
-12.196850
0
LINE
8
Layer 1
10
398.229793
20
-12.196850
11
405.347000
21
-11.994200
0
LINE
8
Layer 1
10
405.347000
20
-11.994200
11
410.123151
21
-12.085325
0
LINE
8
Layer 1
10
410.123151
20
-12.085325
11
414.853518
21
-12.356486
0
LINE
8
Layer 1
10
414.853518
20
-12.356486
11
419.534786
21
-12.804364
0
LINE
8
Layer 1
10
419.534786
20
-12.804364
11
424.163641
21
-13.425639
0
LINE
8
Layer 1
10
424.163641
20
-13.425639
11
428.736767
21
-14.216991
0
LINE
8
Layer 1
10
428.736767
20
-14.216991
11
433.250850
21
-15.175101
0
LINE
8
Layer 1
10
433.250850
20
-15.175101
11
437.702574
21
-16.296648
0
LINE
8
Layer 1
10
437.702574
20
-16.296648
11
442.088625
21
-17.578312
0
LINE
8
Layer 1
10
442.088625
20
-17.578312
11
446.405688
21
-19.016775
0
LINE
8
Layer 1
10
446.405688
20
-19.016775
11
450.650447
21
-20.608717
0
LINE
8
Layer 1
10
450.650447
20
-20.608717
11
454.819589
21
-22.350816
0
LINE
8
Layer 1
10
454.819589
20
-22.350816
11
458.909797
21
-24.239755
0
LINE
8
Layer 1
10
458.909797
20
-24.239755
11
462.917757
21
-26.272212
0
LINE
8
Layer 1
10
462.917757
20
-26.272212
11
466.840154
21
-28.444869
0
LINE
8
Layer 1
10
466.840154
20
-28.444869
11
470.673674
21
-30.754404
0
LINE
8
Layer 1
10
470.673674
20
-30.754404
11
474.415000
21
-33.197500
0
LINE
8
Layer 1
10
474.415000
20
-33.197500
11
474.415000
21
-33.019700
0
LINE
8
Layer 1
10
474.415000
20
-33.019700
11
474.626381
21
-28.536042
0
LINE
8
Layer 1
10
474.626381
20
-28.536042
11
475.247723
21
-24.170953
0
LINE
8
Layer 1
10
475.247723
20
-24.170953
11
476.259820
21
-19.943653
0
LINE
8
Layer 1
10
476.259820
20
-19.943653
11
477.643469
21
-15.873362
0
LINE
8
Layer 1
10
477.643469
20
-15.873362
11
479.379465
21
-11.979299
0
LINE
8
Layer 1
10
479.379465
20
-11.979299
11
481.448605
21
-8.280685
0
LINE
8
Layer 1
10
481.448605
20
-8.280685
11
483.831685
21
-4.796737
0
LINE
8
Layer 1
10
483.831685
20
-4.796737
11
486.509500
21
-1.546678
0
LINE
8
Layer 1
10
486.509500
20
-1.546678
11
489.462846
21
1.450275
0
LINE
8
Layer 1
10
489.462846
20
1.450275
11
492.672520
21
4.174902
0
LINE
8
Layer 1
10
492.672520
20
4.174902
11
496.119316
21
6.607982
0
LINE
8
Layer 1
10
496.119316
20
6.607982
11
499.784031
21
8.730296
0
LINE
8
Layer 1
10
499.784031
20
8.730296
11
503.647461
21
10.522624
0
LINE
8
Layer 1
10
503.647461
20
10.522624
11
507.690402
21
11.965748
0
LINE
8
Layer 1
10
507.690402
20
11.965748
11
511.893650
21
13.040446
0
LINE
8
Layer 1
10
511.893650
20
13.040446
11
516.238000
21
13.727500
0
LINE
8
Layer 1
10
516.238000
20
13.727500
11
517.104750
21
8.596015
0
LINE
8
Layer 1
10
517.104750
20
8.596015
11
517.400000
21
3.290950
0
LINE
8
Layer 1
10
517.400000
20
3.290950
11
517.274853
21
-0.163353
0
LINE
8
Layer 1
10
517.274853
20
-0.163353
11
516.905211
21
-3.550278
0
LINE
8
Layer 1
10
516.905211
20
-3.550278
11
516.299776
21
-6.861119
0
LINE
8
Layer 1
10
516.299776
20
-6.861119
11
515.467250
21
-10.087168
0
LINE
8
Layer 1
10
515.467250
20
-10.087168
11
514.416333
21
-13.219720
0
LINE
8
Layer 1
10
514.416333
20
-13.219720
11
513.155727
21
-16.250069
0
LINE
8
Layer 1
10
513.155727
20
-16.250069
11
511.694132
21
-19.169508
0
LINE
8
Layer 1
10
511.694132
20
-19.169508
11
510.040250
21
-21.969331
0
LINE
8
Layer 1
10
510.040250
20
-21.969331
11
508.202782
21
-24.640832
0
LINE
8
Layer 1
10
508.202782
20
-24.640832
11
506.190430
21
-27.175305
0
LINE
8
Layer 1
10
506.190430
20
-27.175305
11
504.011894
21
-29.564044
0
LINE
8
Layer 1
10
504.011894
20
-29.564044
11
501.675875
21
-31.798341
0
LINE
8
Layer 1
10
501.675875
20
-31.798341
11
499.191075
21
-33.869492
0
LINE
8
Layer 1
10
499.191075
20
-33.869492
11
496.566195
21
-35.768790
0
LINE
8
Layer 1
10
496.566195
20
-35.768790
11
493.809937
21
-37.487528
0
LINE
8
Layer 1
10
493.809937
20
-37.487528
11
490.931000
21
-39.017000
0
LINE
8
Layer 1
10
490.931000
20
-39.017000
11
495.079383
21
-40.232257
0
LINE
8
Layer 1
10
495.079383
20
-40.232257
11
499.286875
21
-41.304453
0
LINE
8
Layer 1
10
499.286875
20
-41.304453
11
503.550617
21
-42.230742
0
LINE
8
Layer 1
10
503.550617
20
-42.230742
11
507.867750
21
-43.008275
0
LINE
8
Layer 1
10
507.867750
20
-43.008275
11
512.235414
21
-43.634205
0
LINE
8
Layer 1
10
512.235414
20
-43.634205
11
516.650750
21
-44.105684
0
LINE
8
Layer 1
10
516.650750
20
-44.105684
11
521.110898
21
-44.419865
0
LINE
8
Layer 1
10
521.110898
20
-44.419865
11
525.613000
21
-44.573900
0
LINE
8
Layer 1
10
525.613000
20
-44.573900
11
530.128557
21
-41.894906
0
LINE
8
Layer 1
10
530.128557
20
-41.894906
11
534.301328
21
-38.744352
0
LINE
8
Layer 1
10
534.301328
20
-38.744352
11
538.094717
21
-35.158949
0
LINE
8
Layer 1
10
538.094717
20
-35.158949
11
541.472125
21
-31.175413
0
LINE
8
Layer 1
10
541.472125
20
-31.175413
11
544.396955
21
-26.830456
0
LINE
8
Layer 1
10
544.396955
20
-26.830456
11
546.832609
21
-22.160792
0
LINE
8
Layer 1
10
546.832609
20
-22.160792
11
547.855559
21
-19.715668
0
LINE
8
Layer 1
10
547.855559
20
-19.715668
11
548.742490
21
-17.203136
0
LINE
8
Layer 1
10
548.742490
20
-17.203136
11
549.488829
21
-14.627783
0
LINE
8
Layer 1
10
549.488829
20
-14.627783
11
550.090000
21
-11.994200
0
LINE
8
Layer 1
10
550.090000
20
-11.994200
11
550.757625
21
-16.515725
0
LINE
8
Layer 1
10
550.757625
20
-16.515725
11
550.985000
21
-21.166400
0
LINE
8
Layer 1
10
550.985000
20
-21.166400
11
550.892117
21
-24.145079
0
LINE
8
Layer 1
10
550.892117
20
-24.145079
11
550.617125
21
-27.074583
0
LINE
8
Layer 1
10
550.617125
20
-27.074583
11
550.165508
21
-29.949386
0
LINE
8
Layer 1
10
550.165508
20
-29.949386
11
549.542750
21
-32.763963
0
LINE
8
Layer 1
10
549.542750
20
-32.763963
11
548.754336
21
-35.512788
0
LINE
8
Layer 1
10
548.754336
20
-35.512788
11
547.805750
21
-38.190336
0
LINE
8
Layer 1
10
547.805750
20
-38.190336
11
546.702477
21
-40.791082
0
LINE
8
Layer 1
10
546.702477
20
-40.791082
11
545.450000
21
-43.309500
0
LINE
8
Layer 1
10
545.450000
20
-43.309500
11
553.190625
21
-41.932312
0
LINE
8
Layer 1
10
553.190625
20
-41.932312
11
560.755000
21
-40.080900
0
LINE
8
Layer 1
10
560.755000
20
-40.080900
11
560.513000
21
-38.661400
0
LINE
8
Layer 1
10
560.513000
20
-38.661400
11
560.599662
21
-37.803290
0
LINE
8
Layer 1
10
560.599662
20
-37.803290
11
560.848172
21
-37.003697
0
LINE
8
Layer 1
10
560.848172
20
-37.003697
11
561.241314
21
-36.279849
0
LINE
8
Layer 1
10
561.241314
20
-36.279849
11
561.761875
21
-35.648975
0
LINE
8
Layer 1
10
561.761875
20
-35.648975
11
562.392639
21
-35.128304
0
LINE
8
Layer 1
10
562.392639
20
-35.128304
11
563.116391
21
-34.735066
0
LINE
8
Layer 1
10
563.116391
20
-34.735066
11
563.915916
21
-34.486488
0
LINE
8
Layer 1
10
563.915916
20
-34.486488
11
564.774000
21
-34.399800
0
LINE
8
Layer 1
10
564.774000
20
-34.399800
11
566.168437
21
-34.633256
0
LINE
8
Layer 1
10
566.168437
20
-34.633256
11
567.369750
21
-35.281050
0
LINE
8
Layer 1
10
567.369750
20
-35.281050
11
568.299188
21
-36.264319
0
LINE
8
Layer 1
10
568.299188
20
-36.264319
11
568.878000
21
-37.504200
0
LINE
8
Layer 1
10
568.878000
20
-37.504200
11
568.883000
21
-37.504200
0
LINE
8
Layer 1
10
568.883000
20
-37.504200
11
568.895000
21
-37.560700
0
LINE
8
Layer 1
10
568.895000
20
-37.560700
11
569.027000
21
-38.362200
0
LINE
8
Layer 1
10
569.027000
20
-38.362200
11
569.455250
21
-42.000750
0
LINE
8
Layer 1
10
569.455250
20
-42.000750
11
569.600000
21
-45.719700
0
LINE
8
Layer 1
10
569.600000
20
-45.719700
11
569.341469
21
-50.677312
0
LINE
8
Layer 1
10
569.341469
20
-50.677312
11
568.583250
21
-55.486725
0
LINE
8
Layer 1
10
568.583250
20
-55.486725
11
567.351406
21
-60.121500
0
LINE
8
Layer 1
10
567.351406
20
-60.121500
11
565.672000
21
-64.555200
0
LINE
8
Layer 1
10
565.672000
20
-64.555200
11
561.783322
21
-67.641231
0
LINE
8
Layer 1
10
561.783322
20
-67.641231
11
557.769969
21
-70.571672
0
LINE
8
Layer 1
10
557.769969
20
-70.571672
11
553.636521
21
-73.341941
0
LINE
8
Layer 1
10
553.636521
20
-73.341941
11
549.387563
21
-75.947458
0
LINE
8
Layer 1
10
549.387563
20
-75.947458
11
545.027674
21
-78.383642
0
LINE
8
Layer 1
10
545.027674
20
-78.383642
11
540.561438
21
-80.645912
0
LINE
8
Layer 1
10
540.561438
20
-80.645912
11
535.993436
21
-82.729687
0
LINE
8
Layer 1
10
535.993436
20
-82.729687
11
531.328250
21
-84.630387
0
LINE
8
Layer 1
10
531.328250
20
-84.630387
11
526.570463
21
-86.343432
0
LINE
8
Layer 1
10
526.570463
20
-86.343432
11
521.724656
21
-87.864240
0
LINE
8
Layer 1
10
521.724656
20
-87.864240
11
516.795412
21
-89.188231
0
LINE
8
Layer 1
10
516.795412
20
-89.188231
11
511.787312
21
-90.310823
0
LINE
8
Layer 1
10
511.787312
20
-90.310823
11
506.704939
21
-91.227437
0
LINE
8
Layer 1
10
506.704939
20
-91.227437
11
501.552875
21
-91.933492
0
LINE
8
Layer 1
10
501.552875
20
-91.933492
11
496.335701
21
-92.424406
0
LINE
8
Layer 1
10
496.335701
20
-92.424406
11
491.058000
21
-92.695600
0
LINE
8
Layer 1
10
491.058000
20
-92.695600
11
491.058000
21
-92.754800
0
LINE
8
Layer 1
10
491.058000
20
-92.754800
11
487.839408
21
-93.046101
0
LINE
8
Layer 1
10
487.839408
20
-93.046101
11
484.811328
21
-93.885584
0
LINE
8
Layer 1
10
484.811328
20
-93.885584
11
482.025428
21
-95.221619
0
LINE
8
Layer 1
10
482.025428
20
-95.221619
11
479.533375
21
-97.002575
0
LINE
8
Layer 1
10
479.533375
20
-97.002575
11
477.386838
21
-99.176821
0
LINE
8
Layer 1
10
477.386838
20
-99.176821
11
475.637484
21
-101.692728
0
LINE
8
Layer 1
10
475.637484
20
-101.692728
11
474.336982
21
-104.498664
0
LINE
8
Layer 1
10
474.336982
20
-104.498664
11
473.537000
21
-107.543000
0
LINE
8
Layer 1
10
473.537000
20
-107.543000
11
473.518000
21
-107.538000
0
LINE
8
Layer 1
10
473.518000
20
-107.538000
11
469.829000
21
-130.928000
0
LINE
8
Layer 1
10
469.829000
20
-130.928000
11
471.718781
21
-133.483172
0
LINE
8
Layer 1
10
471.718781
20
-133.483172
11
473.138500
21
-136.355875
0
LINE
8
Layer 1
10
473.138500
20
-136.355875
11
473.654449
21
-137.893576
0
LINE
8
Layer 1
10
473.654449
20
-137.893576
11
474.031719
21
-139.489391
0
LINE
8
Layer 1
10
474.031719
20
-139.489391
11
474.263254
21
-141.136229
0
LINE
8
Layer 1
10
474.263254
20
-141.136229
11
474.342000
21
-142.827000
0
LINE
8
Layer 1
10
474.342000
20
-142.827000
11
474.256000
21
-144.593266
0
LINE
8
Layer 1
10
474.256000
20
-144.593266
11
474.003500
21
-146.310875
0
LINE
8
Layer 1
10
474.003500
20
-146.310875
11
473.592750
21
-147.972047
0
LINE
8
Layer 1
10
473.592750
20
-147.972047
11
473.032000
21
-149.569000
0
LINE
8
Layer 1
10
473.032000
20
-149.569000
11
473.680766
21
-153.273703
0
LINE
8
Layer 1
10
473.680766
20
-153.273703
11
474.506437
21
-156.914750
0
LINE
8
Layer 1
10
474.506437
20
-156.914750
11
475.504328
21
-160.487547
0
LINE
8
Layer 1
10
475.504328
20
-160.487547
11
476.669750
21
-163.987500
0
LINE
8
Layer 1
10
476.669750
20
-163.987500
11
477.998016
21
-167.410016
0
LINE
8
Layer 1
10
477.998016
20
-167.410016
11
479.484438
21
-170.750500
0
LINE
8
Layer 1
10
479.484438
20
-170.750500
11
481.124328
21
-174.004359
0
LINE
8
Layer 1
10
481.124328
20
-174.004359
11
482.913000
21
-177.167000
0
LINE
8
Layer 1
10
482.913000
20
-177.167000
11
455.777000
21
-177.167000
0
LINE
8
Layer 1
10
455.777000
20
-177.167000
11
455.619034
21
-172.330560
0
LINE
8
Layer 1
10
455.619034
20
-172.330560
11
455.276455
21
-167.542621
0
LINE
8
Layer 1
10
455.276455
20
-167.542621
11
454.752743
21
-162.806663
0
LINE
8
Layer 1
10
454.752743
20
-162.806663
11
454.051377
21
-158.126163
0
LINE
8
Layer 1
10
454.051377
20
-158.126163
11
453.175836
21
-153.504600
0
LINE
8
Layer 1
10
453.175836
20
-153.504600
11
452.129598
21
-148.945453
0
LINE
8
Layer 1
10
452.129598
20
-148.945453
11
450.916145
21
-144.452200
0
LINE
8
Layer 1
10
450.916145
20
-144.452200
11
449.538953
21
-140.028320
0
LINE
8
Layer 1
10
449.538953
20
-140.028320
11
448.001503
21
-135.677292
0
LINE
8
Layer 1
10
448.001503
20
-135.677292
11
446.307275
21
-131.402594
0
LINE
8
Layer 1
10
446.307275
20
-131.402594
11
444.459746
21
-127.207704
0
LINE
8
Layer 1
10
444.459746
20
-127.207704
11
442.462396
21
-123.096102
0
LINE
8
Layer 1
10
442.462396
20
-123.096102
11
440.318705
21
-119.071266
0
LINE
8
Layer 1
10
440.318705
20
-119.071266
11
438.032152
21
-115.136674
0
LINE
8
Layer 1
10
438.032152
20
-115.136674
11
435.606216
21
-111.295805
0
LINE
8
Layer 1
10
435.606216
20
-111.295805
11
433.044375
21
-107.552138
0
LINE
8
Layer 1
10
433.044375
20
-107.552138
11
430.350110
21
-103.909150
0
LINE
8
Layer 1
10
430.350110
20
-103.909150
11
427.526899
21
-100.370322
0
LINE
8
Layer 1
10
427.526899
20
-100.370322
11
424.578221
21
-96.939131
0
LINE
8
Layer 1
10
424.578221
20
-96.939131
11
421.507557
21
-93.619056
0
LINE
8
Layer 1
10
421.507557
20
-93.619056
11
418.318384
21
-90.413575
0
LINE
8
Layer 1
10
418.318384
20
-90.413575
11
415.014182
21
-87.326167
0
LINE
8
Layer 1
10
415.014182
20
-87.326167
11
411.598431
21
-84.360312
0
LINE
8
Layer 1
10
411.598431
20
-84.360312
11
408.074609
21
-81.519486
0
LINE
8
Layer 1
10
408.074609
20
-81.519486
11
404.446196
21
-78.807169
0
LINE
8
Layer 1
10
404.446196
20
-78.807169
11
400.716671
21
-76.226840
0
LINE
8
Layer 1
10
400.716671
20
-76.226840
11
396.889513
21
-73.781976
0
LINE
8
Layer 1
10
396.889513
20
-73.781976
11
392.968201
21
-71.476058
0
LINE
8
Layer 1
10
392.968201
20
-71.476058
11
388.956215
21
-69.312562
0
LINE
8
Layer 1
10
388.956215
20
-69.312562
11
384.857033
21
-67.294968
0
LINE
8
Layer 1
10
384.857033
20
-67.294968
11
380.674135
21
-65.426755
0
LINE
8
Layer 1
10
380.674135
20
-65.426755
11
376.411000
21
-63.711400
0
LINE
8
Layer 1
10
376.411000
20
-63.711400
11
375.059500
21
-63.264387
0
LINE
8
Layer 1
10
375.059500
20
-63.264387
11
373.600000
21
-63.107400
0
LINE
8
Layer 1
10
373.600000
20
-63.107400
11
372.219816
21
-63.246721
0
LINE
8
Layer 1
10
372.219816
20
-63.246721
11
370.934156
21
-63.646227
0
LINE
8
Layer 1
10
370.934156
20
-63.646227
11
369.770605
21
-64.278235
0
LINE
8
Layer 1
10
369.770605
20
-64.278235
11
368.756750
21
-65.115062
0
LINE
8
Layer 1
10
368.756750
20
-65.115062
11
367.920176
21
-66.129026
0
LINE
8
Layer 1
10
367.920176
20
-66.129026
11
367.288469
21
-67.292442
0
LINE
8
Layer 1
10
367.288469
20
-67.292442
11
366.889215
21
-68.577628
0
LINE
8
Layer 1
10
366.889215
20
-68.577628
11
366.750000
21
-69.956900
0
LINE
8
Layer 1
10
366.750000
20
-69.956900
11
366.990000
21
-71.757500
0
LINE
8
Layer 1
10
366.990000
20
-71.757500
11
366.968000
21
-71.797000
0
LINE
8
Layer 1
10
366.968000
20
-71.797000
11
367.576125
21
-74.579538
0
LINE
8
Layer 1
10
367.576125
20
-74.579538
11
368.017000
21
-77.420275
0
LINE
8
Layer 1
10
368.017000
20
-77.420275
11
368.285375
21
-80.313925
0
LINE
8
Layer 1
10
368.285375
20
-80.313925
11
368.376000
21
-83.255200
0
LINE
8
Layer 1
10
368.376000
20
-83.255200
11
368.213192
21
-87.193110
0
LINE
8
Layer 1
10
368.213192
20
-87.193110
11
367.733393
21
-91.041538
0
LINE
8
Layer 1
10
367.733393
20
-91.041538
11
366.949542
21
-94.787546
0
LINE
8
Layer 1
10
366.949542
20
-94.787546
11
365.874578
21
-98.418194
0
LINE
8
Layer 1
10
365.874578
20
-98.418194
11
364.521441
21
-101.920542
0
LINE
8
Layer 1
10
364.521441
20
-101.920542
11
362.903068
21
-105.281652
0
LINE
8
Layer 1
10
362.903068
20
-105.281652
11
361.032400
21
-108.488585
0
LINE
8
Layer 1
10
361.032400
20
-108.488585
11
358.922375
21
-111.528400
0
LINE
8
Layer 1
10
358.922375
20
-111.528400
11
356.585932
21
-114.388159
0
LINE
8
Layer 1
10
356.585932
20
-114.388159
11
354.036010
21
-117.054923
0
LINE
8
Layer 1
10
354.036010
20
-117.054923
11
351.285548
21
-119.515751
0
LINE
8
Layer 1
10
351.285548
20
-119.515751
11
348.347484
21
-121.757706
0
LINE
8
Layer 1
10
348.347484
20
-121.757706
11
345.234759
21
-123.767848
0
LINE
8
Layer 1
10
345.234759
20
-123.767848
11
341.960311
21
-125.533237
0
LINE
8
Layer 1
10
341.960311
20
-125.533237
11
338.537078
21
-127.040934
0
LINE
8
Layer 1
10
338.537078
20
-127.040934
11
334.978000
21
-128.278000
0
LINE
8
Layer 1
10
334.978000
20
-128.278000
11
333.417197
21
-131.939314
0
LINE
8
Layer 1
10
333.417197
20
-131.939314
11
332.045453
21
-135.695328
0
LINE
8
Layer 1
10
332.045453
20
-135.695328
11
330.868639
21
-139.540146
0
LINE
8
Layer 1
10
330.868639
20
-139.540146
11
329.892625
21
-143.467875
0
LINE
8
Layer 1
10
329.892625
20
-143.467875
11
329.123283
21
-147.472619
0
LINE
8
Layer 1
10
329.123283
20
-147.472619
11
328.566484
21
-151.548484
0
LINE
8
Layer 1
10
328.566484
20
-151.548484
11
328.228100
21
-155.689576
0
LINE
8
Layer 1
10
328.228100
20
-155.689576
11
328.114000
21
-159.890000
0
LINE
8
Layer 1
10
328.114000
20
-159.890000
11
328.240453
21
-164.314859
0
LINE
8
Layer 1
10
328.240453
20
-164.314859
11
328.615625
21
-168.673625
0
LINE
8
Layer 1
10
328.615625
20
-168.673625
11
329.233234
21
-172.959828
0
LINE
8
Layer 1
10
329.233234
20
-172.959828
11
330.087000
21
-177.167000
0
LINE
8
Layer 1
10
330.087000
20
-177.167000
11
310.684000
21
-177.167000
0
LINE
8
Layer 1
10
310.684000
20
-177.167000
11
310.684000
21
-177.167000
 0 
ENDSEC
 0 
EOF