<?xml version="1.0" encoding="utf-8" standalone="no"?>
<!DOCTYPE svg PUBLIC "-//W3C//DTD SVG 1.1//EN"
  "http://www.w3.org/Graphics/SVG/1.1/DTD/svg11.dtd">
<svg xmlns:xlink="http://www.w3.org/1999/xlink" width="567.36pt" height="345.6pt" viewBox="0 0 567.36 345.6" xmlns="http://www.w3.org/2000/svg" version="1.1">
 <metadata>
  <rdf:RDF xmlns:dc="http://purl.org/dc/elements/1.1/" xmlns:cc="http://creativecommons.org/ns#" xmlns:rdf="http://www.w3.org/1999/02/22-rdf-syntax-ns#">
   <cc:Work>
    <dc:type rdf:resource="http://purl.org/dc/dcmitype/StillImage"/>
    <dc:date>2022-10-21T23:04:43.308106</dc:date>
    <dc:format>image/svg+xml</dc:format>
    <dc:creator>
     <cc:Agent>
      <dc:title>Matplotlib v3.5.2, https://matplotlib.org/</dc:title>
     </cc:Agent>
    </dc:creator>
   </cc:Work>
  </rdf:RDF>
 </metadata>
 <defs>
  <style type="text/css">*{stroke-linejoin: round; stroke-linecap: butt}</style>
 </defs>
 <g id="figure_1">
  <g id="patch_1">
   <path d="M 0 345.6 
L 567.36 345.6 
L 567.36 0 
L 0 0 
z
" style="fill: #ffffff"/>
  </g>
  <g id="axes_1">
   <g id="patch_2">
    <path d="M 0 345.6 
L 567.36 345.6 
L 567.36 0 
L 0 0 
z
" style="fill: #212830"/>
   </g>
   <g id="patch_3">
    <path d="M 517.787139 139.035795 
C 506.193045 93.388077 471.99037 56.896548 427.213329 42.400755 
" clip-path="url(#p8fb6146f0a)" style="fill: none; stroke: #ff0000; stroke-width: 0.36; stroke-linejoin: miter"/>
   </g>
   <g id="patch_4">
    <path d="M 427.213329 42.400755 
C 418.177548 39.475577 408.290314 42.759699 402.795221 50.511421 
" clip-path="url(#p8fb6146f0a)" style="fill: none; stroke: #ff0000; stroke-width: 0.36; stroke-linejoin: miter"/>
   </g>
   <g id="patch_5">
    <path d="M 365.655553 47.713196 
C 369.086246 54.526937 375.832985 59.043857 383.435235 59.616636 
C 391.037484 60.189414 398.383891 56.734318 402.795221 50.511421 
" clip-path="url(#p8fb6146f0a)" style="fill: none; stroke: #ff0000; stroke-width: 0.36; stroke-linejoin: miter"/>
   </g>
   <g id="patch_6">
    <path d="M 365.655553 47.713196 
C 361.96158 40.37655 354.452931 35.748371 346.244101 35.748371 
" clip-path="url(#p8fb6146f0a)" style="fill: none; stroke: #ff0000; stroke-width: 0.36; stroke-linejoin: miter"/>
   </g>
   <g id="line2d_1">
    <path d="M 195.31318 35.748371 
L 346.244101 35.748371 
" clip-path="url(#p8fb6146f0a)" style="fill: none; stroke: #ff0000; stroke-width: 0.36; stroke-linecap: square"/>
   </g>
   <g id="patch_7">
    <path d="M 177.159496 25.958969 
C 181.180632 32.069925 188.002024 35.748371 195.31318 35.748371 
" clip-path="url(#p8fb6146f0a)" style="fill: none; stroke: #ff0000; stroke-width: 0.36; stroke-linejoin: miter"/>
   </g>
   <g id="patch_8">
    <path d="M 177.159496 25.958969 
C 172.862656 19.429023 165.394883 15.709091 157.598829 16.215187 
C 149.802776 16.721284 142.877753 21.375553 139.459812 28.406319 
" clip-path="url(#p8fb6146f0a)" style="fill: none; stroke: #ff0000; stroke-width: 0.36; stroke-linejoin: miter"/>
   </g>
   <g id="patch_9">
    <path d="M 125.268882 39.972565 
C 131.469463 38.395128 136.660787 34.163965 139.459812 28.406319 
" clip-path="url(#p8fb6146f0a)" style="fill: none; stroke: #ff0000; stroke-width: 0.36; stroke-linejoin: miter"/>
   </g>
   <g id="patch_10">
    <path d="M 125.268882 39.972565 
C 79.658039 51.576033 43.195988 85.80636 28.711906 130.619602 
" clip-path="url(#p8fb6146f0a)" style="fill: none; stroke: #ff0000; stroke-width: 0.36; stroke-linejoin: miter"/>
   </g>
   <g id="patch_11">
    <path d="M 28.711906 130.619602 
C 25.789091 139.662689 29.07056 149.557916 36.81602 155.057452 
" clip-path="url(#p8fb6146f0a)" style="fill: none; stroke: #ff0000; stroke-width: 0.36; stroke-linejoin: miter"/>
   </g>
   <g id="patch_12">
    <path d="M 36.81602 190.542548 
C 42.561407 186.463131 45.975214 179.850143 45.975214 172.8 
C 45.975214 165.749857 42.561407 159.136869 36.81602 155.057452 
" clip-path="url(#p8fb6146f0a)" style="fill: none; stroke: #ff0000; stroke-width: 0.36; stroke-linejoin: miter"/>
   </g>
   <g id="patch_13">
    <path d="M 36.81602 190.542548 
C 29.07056 196.042084 25.789091 205.937311 28.711906 214.980398 
" clip-path="url(#p8fb6146f0a)" style="fill: none; stroke: #ff0000; stroke-width: 0.36; stroke-linejoin: miter"/>
   </g>
   <g id="patch_14">
    <path d="M 28.711906 214.980398 
C 43.195988 259.79364 79.658039 294.023967 125.268882 305.627435 
" clip-path="url(#p8fb6146f0a)" style="fill: none; stroke: #ff0000; stroke-width: 0.36; stroke-linejoin: miter"/>
   </g>
   <g id="patch_15">
    <path d="M 139.459812 317.193681 
C 136.660787 311.436035 131.469463 307.204872 125.268882 305.627435 
" clip-path="url(#p8fb6146f0a)" style="fill: none; stroke: #ff0000; stroke-width: 0.36; stroke-linejoin: miter"/>
   </g>
   <g id="patch_16">
    <path d="M 139.459812 317.193681 
C 142.877753 324.224447 149.802776 328.878716 157.598829 329.384813 
C 165.394883 329.890909 172.862656 326.170977 177.159496 319.641031 
" clip-path="url(#p8fb6146f0a)" style="fill: none; stroke: #ff0000; stroke-width: 0.36; stroke-linejoin: miter"/>
   </g>
   <g id="patch_17">
    <path d="M 195.31318 309.851629 
C 188.002024 309.851629 181.180632 313.530075 177.159496 319.641031 
" clip-path="url(#p8fb6146f0a)" style="fill: none; stroke: #ff0000; stroke-width: 0.36; stroke-linejoin: miter"/>
   </g>
   <g id="line2d_2">
    <path d="M 195.31318 309.851629 
L 346.244101 309.851629 
" clip-path="url(#p8fb6146f0a)" style="fill: none; stroke: #ff0000; stroke-width: 0.36; stroke-linecap: square"/>
   </g>
   <g id="patch_18">
    <path d="M 346.244101 309.851629 
C 354.452931 309.851629 361.96158 305.22345 365.655553 297.886804 
" clip-path="url(#p8fb6146f0a)" style="fill: none; stroke: #ff0000; stroke-width: 0.36; stroke-linejoin: miter"/>
   </g>
   <g id="patch_19">
    <path d="M 402.795221 295.088579 
C 398.383891 288.865682 391.037484 285.410586 383.435235 285.983364 
C 375.832985 286.556143 369.086246 291.073063 365.655553 297.886804 
" clip-path="url(#p8fb6146f0a)" style="fill: none; stroke: #ff0000; stroke-width: 0.36; stroke-linejoin: miter"/>
   </g>
   <g id="patch_20">
    <path d="M 402.795221 295.088579 
C 408.290314 302.840301 418.177548 306.124423 427.213329 303.199245 
" clip-path="url(#p8fb6146f0a)" style="fill: none; stroke: #ff0000; stroke-width: 0.36; stroke-linejoin: miter"/>
   </g>
   <g id="patch_21">
    <path d="M 427.213329 303.199245 
C 471.99037 288.703452 506.193045 252.211923 517.787139 206.564205 
" clip-path="url(#p8fb6146f0a)" style="fill: none; stroke: #ff0000; stroke-width: 0.36; stroke-linejoin: miter"/>
   </g>
   <g id="patch_22">
    <path d="M 529.344042 192.361801 
C 523.591047 195.16309 519.363302 200.358611 517.787139 206.564205 
" clip-path="url(#p8fb6146f0a)" style="fill: none; stroke: #ff0000; stroke-width: 0.36; stroke-linejoin: miter"/>
   </g>
   <g id="patch_23">
    <path d="M 529.344042 192.361801 
C 536.823841 188.719685 541.570909 181.124837 541.570909 172.8 
C 541.570909 164.475163 536.823841 156.880315 529.344042 153.238199 
" clip-path="url(#p8fb6146f0a)" style="fill: none; stroke: #ff0000; stroke-width: 0.36; stroke-linejoin: miter"/>
   </g>
   <g id="patch_24">
    <path d="M 517.787139 139.035795 
C 519.363302 145.241389 523.591047 150.43691 529.344042 153.238199 
" clip-path="url(#p8fb6146f0a)" style="fill: none; stroke: #ff0000; stroke-width: 0.36; stroke-linejoin: miter"/>
   </g>
   <g id="patch_25">
    <path d="M 331.812205 258.729196 
C 331.812205 268.340818 324.02674 276.132577 314.422882 276.132577 
C 304.819025 276.132577 297.03356 268.340818 297.03356 258.729196 
C 297.03356 249.117574 304.819025 241.325815 314.422882 241.325815 
C 324.02674 241.325815 331.812205 249.117574 331.812205 258.729196 
" clip-path="url(#p8fb6146f0a)" style="fill: none; stroke: #ff0000; stroke-width: 0.36; stroke-linejoin: miter"/>
   </g>
   <g id="patch_26">
    <path d="M 261.168082 172.8 
C 261.168082 176.404358 258.248532 179.326268 254.647086 179.326268 
C 251.045639 179.326268 248.12609 176.404358 248.12609 172.8 
C 248.12609 169.195642 251.045639 166.273732 254.647086 166.273732 
C 258.248532 166.273732 261.168082 169.195642 261.168082 172.8 
" clip-path="url(#p8fb6146f0a)" style="fill: none; stroke: #ff0000; stroke-width: 0.36; stroke-linejoin: miter"/>
   </g>
   <g id="patch_27">
    <path d="M 170.960971 172.8 
C 170.960971 179.40799 165.608463 184.764825 159.005811 184.764825 
C 152.403159 184.764825 147.050652 179.40799 147.050652 172.8 
C 147.050652 166.19201 152.403159 160.835175 159.005811 160.835175 
C 165.608463 160.835175 170.960971 166.19201 170.960971 172.8 
" clip-path="url(#p8fb6146f0a)" style="fill: none; stroke: #ff0000; stroke-width: 0.36; stroke-linejoin: miter"/>
   </g>
   <g id="patch_28">
    <path d="M 350.619814 197.271407 
Q 351.376357 197.528765 352.091906 198.367977 
Q 352.807455 199.207188 353.530457 200.676741 
L 355.919346 205.432273 
L 353.388838 205.432273 
L 351.167656 200.967668 
Q 350.303035 199.218378 349.494315 198.647714 
Q 348.685596 198.07705 347.288041 198.07705 
L 344.723991 198.07705 
L 344.723991 205.432273 
L 342.37237 205.432273 
L 342.37237 188.028891 
L 347.683083 188.028891 
Q 350.664536 188.028891 352.132901 189.278384 
Q 353.601267 190.524147 353.601267 193.041781 
Q 353.601267 194.686636 352.837269 195.772016 
Q 352.073272 196.853666 350.619814 197.271407 
z
M 344.723991 189.964672 
L 344.723991 196.141269 
L 347.683083 196.141269 
Q 349.382511 196.141269 350.250859 195.354275 
Q 351.119207 194.567281 351.119207 193.041781 
Q 351.119207 191.516281 350.250859 190.740477 
Q 349.382511 189.964672 347.683083 189.964672 
L 344.723991 189.964672 
z
M 364.244587 198.871504 
Q 361.646996 198.871504 360.644483 199.464547 
Q 359.641969 200.057589 359.641969 201.493573 
Q 359.641969 202.634901 360.394786 203.30627 
Q 361.147603 203.97391 362.437081 203.97391 
Q 364.222226 203.97391 365.299276 202.709498 
Q 366.376325 201.445086 366.376325 199.348922 
L 366.376325 198.871504 
L 364.244587 198.871504 
z
M 368.519244 197.983804 
L 368.519244 205.432273 
L 366.376325 205.432273 
L 366.376325 203.451734 
Q 365.642143 204.637819 364.546459 205.204753 
Q 363.450775 205.771687 361.866878 205.771687 
Q 359.865578 205.771687 358.680451 204.645279 
Q 357.49905 203.518871 357.49905 201.631577 
Q 357.49905 199.430978 358.971142 198.312029 
Q 360.446961 197.193081 363.368785 197.193081 
L 366.376325 197.193081 
L 366.376325 196.980481 
Q 366.376325 195.499738 365.403626 194.690366 
Q 364.430927 193.880993 362.67187 193.880993 
Q 361.553826 193.880993 360.491683 194.14954 
Q 359.433267 194.418088 358.456842 194.955183 
L 358.456842 192.970914 
Q 359.630789 192.515875 360.737653 192.292086 
Q 361.844517 192.064566 362.891752 192.064566 
Q 365.724133 192.064566 367.121688 193.534119 
Q 368.519244 194.999941 368.519244 197.983804 
z
M 378.357572 206.644467 
Q 377.451956 208.97561 376.587335 209.684278 
Q 375.72644 210.396675 374.284163 210.396675 
L 372.569827 210.396675 
L 372.569827 208.602627 
L 373.829491 208.602627 
Q 374.712746 208.602627 375.200959 208.181157 
Q 375.692899 207.763416 376.285463 206.200617 
L 376.669325 205.223402 
L 371.39588 192.377872 
L 373.665511 192.377872 
L 377.742648 202.586413 
L 381.819784 192.377872 
L 384.089415 192.377872 
L 378.357572 206.644467 
z
M 392.100206 193.880993 
Q 390.378417 193.880993 389.375903 195.227461 
Q 388.37339 196.573929 388.37339 198.916262 
Q 388.37339 201.258594 389.36845 202.605062 
Q 390.367236 203.951531 392.100206 203.951531 
Q 393.814541 203.951531 394.813328 202.601333 
Q 395.815841 201.247405 395.815841 198.916262 
Q 395.815841 196.596308 394.813328 195.23865 
Q 393.814541 193.880993 392.100206 193.880993 
z
M 392.100206 192.064566 
Q 394.895318 192.064566 396.490395 193.884723 
Q 398.089199 195.701149 398.089199 198.916262 
Q 398.089199 202.120185 396.490395 203.947801 
Q 394.895318 205.771687 392.100206 205.771687 
Q 389.293913 205.771687 387.702563 203.947801 
Q 386.114939 202.120185 386.114939 198.916262 
Q 386.114939 195.701149 387.702563 193.884723 
Q 389.293913 192.064566 392.100206 192.064566 
z
M 412.484491 197.551144 
L 412.484491 205.432273 
L 410.341572 205.432273 
L 410.341572 197.622011 
Q 410.341572 195.768286 409.618569 194.850748 
Q 408.895567 193.929481 407.453289 193.929481 
Q 405.716593 193.929481 404.71408 195.03724 
Q 403.711566 196.141269 403.711566 198.054671 
L 403.711566 205.432273 
L 401.557467 205.432273 
L 401.557467 192.377872 
L 403.711566 192.377872 
L 403.711566 194.406899 
Q 404.483017 193.228273 405.522799 192.646419 
Q 406.566307 192.064566 407.930322 192.064566 
Q 410.177592 192.064566 411.329178 193.455792 
Q 412.484491 194.847018 412.484491 197.551144 
z
M 416.01099 188.028891 
L 418.537771 188.028891 
L 422.860878 194.500144 
L 427.202618 188.028891 
L 429.729399 188.028891 
L 424.139175 196.387438 
L 430.102081 205.432273 
L 427.5753 205.432273 
L 422.685717 198.032292 
L 417.758867 205.432273 
L 415.220905 205.432273 
L 421.426054 196.141269 
L 416.01099 188.028891 
z
" clip-path="url(#p8fb6146f0a)" style="fill: #ffffff"/>
   </g>
   <g id="patch_29">
    <path d="M 342.234129 141.256837 
L 343.987596 141.256837 
L 346.205051 147.177941 
L 348.43555 141.256837 
L 350.189017 141.256837 
L 350.189017 149.958528 
L 349.041158 149.958528 
L 349.041158 142.317974 
L 346.799478 148.2857 
L 345.618078 148.2857 
L 343.376398 142.317974 
L 343.376398 149.958528 
L 342.234129 149.958528 
L 342.234129 141.256837 
z
M 355.441731 146.678144 
Q 354.142936 146.678144 353.641679 146.974665 
Q 353.140422 147.271186 353.140422 147.989178 
Q 353.140422 148.559842 353.516831 148.895527 
Q 353.893239 149.229347 354.537978 149.229347 
Q 355.430551 149.229347 355.969076 148.597141 
Q 356.507601 147.964935 356.507601 146.916853 
L 356.507601 146.678144 
L 355.441731 146.678144 
z
M 357.57906 146.234294 
L 357.57906 149.958528 
L 356.507601 149.958528 
L 356.507601 148.968258 
Q 356.140509 149.561301 355.592667 149.844768 
Q 355.044825 150.128235 354.252877 150.128235 
Q 353.252227 150.128235 352.659663 149.565031 
Q 352.068963 149.001827 352.068963 148.05818 
Q 352.068963 146.957881 352.805009 146.398406 
Q 353.542919 145.838932 355.00383 145.838932 
L 356.507601 145.838932 
L 356.507601 145.732632 
Q 356.507601 144.992261 356.021251 144.587574 
Q 355.534902 144.182888 354.655373 144.182888 
Q 354.096351 144.182888 353.565279 144.317162 
Q 353.036072 144.451436 352.547859 144.719983 
L 352.547859 143.727849 
Q 353.134832 143.500329 353.688264 143.388435 
Q 354.241697 143.274675 354.765314 143.274675 
Q 356.181504 143.274675 356.880282 144.009451 
Q 357.57906 144.742362 357.57906 146.234294 
z
M 364.076531 144.421597 
L 364.076531 140.889449 
L 365.14799 140.889449 
L 365.14799 149.958528 
L 364.076531 149.958528 
L 364.076531 148.979448 
Q 363.739254 149.561301 363.22309 149.844768 
Q 362.708789 150.128235 361.985787 150.128235 
Q 360.804386 150.128235 360.060886 149.184589 
Q 359.31925 148.239077 359.31925 146.700523 
Q 359.31925 145.161968 360.060886 144.218321 
Q 360.804386 143.274675 361.985787 143.274675 
Q 362.708789 143.274675 363.22309 143.558142 
Q 363.739254 143.839744 364.076531 144.421597 
z
M 360.426114 146.700523 
Q 360.426114 147.882878 360.912464 148.556112 
Q 361.398813 149.229347 362.248527 149.229347 
Q 363.098241 149.229347 363.586454 148.556112 
Q 364.076531 147.882878 364.076531 146.700523 
Q 364.076531 145.518167 363.586454 144.844933 
Q 363.098241 144.171699 362.248527 144.171699 
Q 361.398813 144.171699 360.912464 144.844933 
Q 360.426114 145.518167 360.426114 146.700523 
z
M 372.93424 146.42638 
L 372.93424 146.950421 
L 368.00739 146.950421 
Q 368.078199 148.05818 368.67449 148.638169 
Q 369.27078 149.218157 370.336649 149.218157 
Q 370.953437 149.218157 371.532957 149.067099 
Q 372.112477 148.916041 372.684543 148.61206 
L 372.684543 149.626573 
Q 372.106887 149.870877 371.501279 149.999556 
Q 370.895672 150.128235 370.273294 150.128235 
Q 368.711758 150.128235 367.800551 149.220022 
Q 366.889345 148.309944 366.889345 146.758335 
Q 366.889345 145.156373 367.753966 144.216457 
Q 368.618587 143.274675 370.086953 143.274675 
Q 371.402519 143.274675 372.168379 144.123211 
Q 372.93424 144.969882 372.93424 146.42638 
z
M 371.862781 146.11121 
Q 371.8516 145.232835 371.370841 144.708794 
Q 370.890082 144.182888 370.098133 144.182888 
Q 369.201834 144.182888 368.663309 144.690145 
Q 368.124784 145.197402 368.042794 146.118669 
L 371.862781 146.11121 
z
M 378.483236 143.431328 
L 379.554695 143.431328 
L 379.554695 149.958528 
L 378.483236 149.958528 
L 378.483236 143.431328 
z
M 378.483236 140.889449 
L 379.554695 140.889449 
L 379.554695 142.248972 
L 378.483236 142.248972 
L 378.483236 140.889449 
z
M 387.219125 146.017964 
L 387.219125 149.958528 
L 386.147666 149.958528 
L 386.147666 146.053397 
Q 386.147666 145.126535 385.786164 144.667766 
Q 385.424663 144.207132 384.703524 144.207132 
Q 383.835176 144.207132 383.33392 144.761012 
Q 382.832663 145.313026 382.832663 146.269727 
L 382.832663 149.958528 
L 381.755613 149.958528 
L 381.755613 143.431328 
L 382.832663 143.431328 
L 382.832663 144.445841 
Q 383.218388 143.856528 383.738279 143.565601 
Q 384.260033 143.274675 384.942041 143.274675 
Q 386.065676 143.274675 386.641469 143.970288 
Q 387.219125 144.665901 387.219125 146.017964 
z
M 392.691255 141.256837 
L 399.522509 141.256837 
L 399.522509 142.155726 
L 394.025455 148.968258 
L 399.656674 148.968258 
L 399.656674 149.958528 
L 392.558953 149.958528 
L 392.558953 149.061504 
L 398.056007 142.248972 
L 392.691255 142.248972 
L 392.691255 141.256837 
z
M 401.205865 147.383081 
L 401.205865 143.431328 
L 402.277324 143.431328 
L 402.277324 147.342053 
Q 402.277324 148.268916 402.636962 148.733279 
Q 402.998463 149.195778 403.721466 149.195778 
Q 404.58795 149.195778 405.09107 148.641898 
Q 405.596054 148.088019 405.596054 147.131318 
L 405.596054 143.431328 
L 406.667513 143.431328 
L 406.667513 149.958528 
L 405.596054 149.958528 
L 405.596054 148.955204 
Q 405.206602 149.550112 404.690438 149.839174 
Q 404.176137 150.128235 403.49413 150.128235 
Q 402.370495 150.128235 401.787248 149.428892 
Q 401.205865 148.729549 401.205865 147.383081 
z
M 403.902216 143.274675 
L 403.902216 143.274675 
z
M 412.653246 144.432787 
Q 412.472495 144.328351 412.260066 144.279864 
Q 412.047638 144.229511 411.792351 144.229511 
Q 410.883008 144.229511 410.396659 144.820689 
Q 409.910309 145.411867 409.910309 146.519626 
L 409.910309 149.958528 
L 408.833259 149.958528 
L 408.833259 143.431328 
L 409.910309 143.431328 
L 409.910309 144.445841 
Q 410.249449 143.850933 410.789838 143.563736 
Q 411.332089 143.274675 412.107267 143.274675 
Q 412.217208 143.274675 412.351373 143.289594 
Q 412.485539 143.302648 412.647655 143.332487 
L 412.653246 144.432787 
z
M 413.777346 143.431328 
L 414.848806 143.431328 
L 414.848806 149.958528 
L 413.777346 149.958528 
L 413.777346 143.431328 
z
M 413.777346 140.889449 
L 414.848806 140.889449 
L 414.848806 142.248972 
L 413.777346 142.248972 
L 413.777346 140.889449 
z
M 421.784643 143.681226 
L 421.784643 144.68455 
Q 421.329972 144.432787 420.873437 144.307837 
Q 420.416902 144.182888 419.95105 144.182888 
Q 418.907541 144.182888 418.329885 144.844933 
Q 417.754092 145.505112 417.754092 146.700523 
Q 417.754092 147.895933 418.329885 148.557977 
Q 418.907541 149.218157 419.95105 149.218157 
Q 420.416902 149.218157 420.873437 149.093208 
Q 421.329972 148.968258 421.784643 148.716495 
L 421.784643 149.70863 
Q 421.335562 149.9175 420.854803 150.021935 
Q 420.375907 150.128235 419.833655 150.128235 
Q 418.359699 150.128235 417.491351 149.201373 
Q 416.624867 148.27451 416.624867 146.700523 
Q 416.624867 145.104156 417.500668 144.190348 
Q 418.378333 143.274675 419.904464 143.274675 
Q 420.398268 143.274675 420.86971 143.377245 
Q 421.341152 143.47795 421.784643 143.681226 
z
M 429.070102 146.017964 
L 429.070102 149.958528 
L 427.998643 149.958528 
L 427.998643 146.053397 
Q 427.998643 145.126535 427.637141 144.667766 
Q 427.27564 144.207132 426.554501 144.207132 
Q 425.686153 144.207132 425.184897 144.761012 
Q 424.68364 145.313026 424.68364 146.269727 
L 424.68364 149.958528 
L 423.60659 149.958528 
L 423.60659 140.889449 
L 424.68364 140.889449 
L 424.68364 144.445841 
Q 425.069365 143.856528 425.589256 143.565601 
Q 426.11101 143.274675 426.793018 143.274675 
Q 427.916653 143.274675 428.492446 143.970288 
Q 429.070102 144.665901 429.070102 146.017964 
z
" clip-path="url(#p8fb6146f0a)" style="fill: #ffffff"/>
   </g>
   <g id="patch_30">
    <path d="M 353.956944 232.820406 
L 353.956944 236.007545 
L 355.844577 236.007545 
Q 356.793051 236.007545 357.249586 235.614048 
Q 357.707985 235.220551 357.707985 234.411178 
Q 357.707985 233.594346 357.249586 233.208308 
Q 356.793051 232.820406 355.844577 232.820406 
L 353.956944 232.820406 
z
M 353.956944 229.241635 
L 353.956944 231.863705 
L 355.699231 231.863705 
Q 356.560125 231.863705 356.981256 231.541075 
Q 357.404249 231.21658 357.404249 230.55267 
Q 357.404249 229.894355 356.981256 229.567995 
Q 356.560125 229.241635 355.699231 229.241635 
L 353.956944 229.241635 
z
M 352.781134 228.273745 
L 355.786811 228.273745 
Q 357.132192 228.273745 357.858921 228.833219 
Q 358.587513 229.392693 358.587513 230.423991 
Q 358.587513 231.224039 358.214832 231.695863 
Q 357.84215 232.167686 357.119148 232.283311 
Q 357.987496 232.469802 358.468255 233.062845 
Q 358.949014 233.654023 358.949014 234.539857 
Q 358.949014 235.705429 358.157066 236.341365 
Q 357.365118 236.975435 355.902342 236.975435 
L 352.781134 236.975435 
L 352.781134 228.273745 
z
M 363.629196 237.581533 
Q 363.176388 238.747104 362.744077 239.101438 
Q 362.31363 239.457637 361.592491 239.457637 
L 360.735324 239.457637 
L 360.735324 238.560613 
L 361.365156 238.560613 
Q 361.806783 238.560613 362.05089 238.349877 
Q 362.29686 238.141007 362.593141 237.359608 
L 362.785072 236.871 
L 360.14835 230.448235 
L 361.283166 230.448235 
L 363.321734 235.552506 
L 365.360302 230.448235 
L 366.495118 230.448235 
L 363.629196 237.581533 
z
M 370.605562 228.273745 
L 377.960434 228.273745 
L 377.960434 229.265879 
L 374.87463 229.265879 
L 374.87463 236.975435 
L 373.693229 236.975435 
L 373.693229 229.265879 
L 370.605562 229.265879 
L 370.605562 228.273745 
z
M 379.548756 231.199795 
Q 378.687861 231.199795 378.186605 231.87303 
Q 377.685348 232.546264 377.685348 233.71743 
Q 377.685348 234.888596 378.182878 235.56183 
Q 378.682271 236.235064 379.548756 236.235064 
Q 380.405923 236.235064 380.905317 235.559965 
Q 381.406574 234.883001 381.406574 233.71743 
Q 381.406574 232.557453 380.905317 231.878624 
Q 380.405923 231.199795 379.548756 231.199795 
z
M 379.548756 230.291582 
Q 380.946312 230.291582 381.74385 231.20166 
Q 382.543252 232.109874 382.543252 233.71743 
Q 382.543252 235.319391 381.74385 236.233199 
Q 380.946312 237.145143 379.548756 237.145143 
Q 378.14561 237.145143 377.349934 236.233199 
Q 376.556123 235.319391 376.556123 233.71743 
Q 376.556123 232.109874 377.349934 231.20166 
Q 378.14561 230.291582 379.548756 230.291582 
z
M 384.20844 234.399989 
L 384.20844 230.448235 
L 385.2799 230.448235 
L 385.2799 234.35896 
Q 385.2799 235.285823 385.639538 235.750187 
Q 386.001039 236.212685 386.724041 236.212685 
Q 387.590526 236.212685 388.093646 235.658806 
Q 388.598629 235.104926 388.598629 234.148225 
L 388.598629 230.448235 
L 389.670089 230.448235 
L 389.670089 236.975435 
L 388.598629 236.975435 
L 388.598629 235.972111 
Q 388.209177 236.567019 387.693013 236.856081 
Q 387.178712 237.145143 386.496705 237.145143 
Q 385.37307 237.145143 384.789823 236.4458 
Q 384.20844 235.746457 384.20844 234.399989 
z
M 386.904791 230.291582 
L 386.904791 230.291582 
z
M 392.937109 228.59451 
L 392.937109 230.448235 
L 395.143384 230.448235 
L 395.143384 231.281852 
L 392.937109 231.281852 
L 392.937109 234.825189 
Q 392.937109 235.623372 393.155127 235.850892 
Q 393.373146 236.078412 394.043973 236.078412 
L 395.143384 236.078412 
L 395.143384 236.975435 
L 394.043973 236.975435 
Q 392.802943 236.975435 392.331501 236.512937 
Q 391.860059 236.048573 391.860059 234.825189 
L 391.860059 231.281852 
L 391.073701 231.281852 
L 391.073701 230.448235 
L 391.860059 230.448235 
L 391.860059 228.59451 
L 392.937109 228.59451 
z
M 399.517501 233.695051 
Q 398.218706 233.695051 397.717449 233.991572 
Q 397.216192 234.288094 397.216192 235.006086 
Q 397.216192 235.57675 397.5926 235.912434 
Q 397.969009 236.246254 398.613748 236.246254 
Q 399.50632 236.246254 400.044845 235.614048 
Q 400.58337 234.981842 400.58337 233.93376 
L 400.58337 233.695051 
L 399.517501 233.695051 
z
M 401.65483 233.251201 
L 401.65483 236.975435 
L 400.58337 236.975435 
L 400.58337 235.985166 
Q 400.216279 236.578209 399.668437 236.861676 
Q 399.120595 237.145143 398.328647 237.145143 
Q 397.327997 237.145143 396.735433 236.581938 
Q 396.144733 236.018734 396.144733 235.075088 
Q 396.144733 233.974788 396.880779 233.415314 
Q 397.618688 232.855839 399.0796 232.855839 
L 400.58337 232.855839 
L 400.58337 232.749539 
Q 400.58337 232.009168 400.097021 231.604482 
Q 399.610671 231.199795 398.731143 231.199795 
Q 398.17212 231.199795 397.641049 231.334069 
Q 397.111841 231.468343 396.623628 231.736891 
L 396.623628 230.744756 
Q 397.210602 230.517237 397.764034 230.405342 
Q 398.317466 230.291582 398.841084 230.291582 
Q 400.257274 230.291582 400.956052 231.026358 
Q 401.65483 231.75927 401.65483 233.251201 
z
M 404.921151 228.59451 
L 404.921151 230.448235 
L 407.127426 230.448235 
L 407.127426 231.281852 
L 404.921151 231.281852 
L 404.921151 234.825189 
Q 404.921151 235.623372 405.13917 235.850892 
Q 405.357188 236.078412 406.028015 236.078412 
L 407.127426 236.078412 
L 407.127426 236.975435 
L 406.028015 236.975435 
Q 404.786985 236.975435 404.315543 236.512937 
Q 403.844101 236.048573 403.844101 234.825189 
L 403.844101 231.281852 
L 403.057743 231.281852 
L 403.057743 230.448235 
L 403.844101 230.448235 
L 403.844101 228.59451 
L 404.921151 228.59451 
z
M 408.536861 230.448235 
L 409.608321 230.448235 
L 409.608321 236.975435 
L 408.536861 236.975435 
L 408.536861 230.448235 
z
M 408.536861 227.906357 
L 409.608321 227.906357 
L 409.608321 229.265879 
L 408.536861 229.265879 
L 408.536861 227.906357 
z
M 411.477552 228.273745 
L 412.740942 228.273745 
L 414.902495 231.509371 
L 417.073366 228.273745 
L 418.336756 228.273745 
L 415.541644 232.453018 
L 418.523097 236.975435 
L 417.259706 236.975435 
L 414.814915 233.275445 
L 412.35149 236.975435 
L 411.082509 236.975435 
L 414.185083 232.329934 
L 411.477552 228.273745 
z
" clip-path="url(#p8fb6146f0a)" style="fill: #ffffff"/>
   </g>
   <g id="line2d_3">
    <path d="M 341.593699 216.308454 
L 428.540312 216.308454 
" clip-path="url(#p8fb6146f0a)" style="fill: none; stroke: #ffffff; stroke-width: 0.36; stroke-linecap: square"/>
   </g>
   <g id="line2d_4">
    <path d="M 341.593699 220.659299 
L 428.540312 220.659299 
" clip-path="url(#p8fb6146f0a)" style="fill: none; stroke: #ffffff; stroke-width: 0.36; stroke-linecap: square"/>
   </g>
  </g>
 </g>
 <defs>
  <clipPath id="p8fb6146f0a">
   <rect x="0" y="0" width="567.36" height="345.6"/>
  </clipPath>
 </defs>
</svg>
