<?xml version="1.0" encoding="utf-8" standalone="no"?>
<!DOCTYPE svg PUBLIC "-//W3C//DTD SVG 1.1//EN"
  "http://www.w3.org/Graphics/SVG/1.1/DTD/svg11.dtd">
<svg xmlns:xlink="http://www.w3.org/1999/xlink" width="567.36pt" height="345.6pt" viewBox="0 0 567.36 345.6" xmlns="http://www.w3.org/2000/svg" version="1.1">
 <metadata>
  <rdf:RDF xmlns:dc="http://purl.org/dc/elements/1.1/" xmlns:cc="http://creativecommons.org/ns#" xmlns:rdf="http://www.w3.org/1999/02/22-rdf-syntax-ns#">
   <cc:Work>
    <dc:type rdf:resource="http://purl.org/dc/dcmitype/StillImage"/>
    <dc:date>2022-10-20T20:49:48.883429</dc:date>
    <dc:format>image/svg+xml</dc:format>
    <dc:creator>
     <cc:Agent>
      <dc:title>Matplotlib v3.5.2, https://matplotlib.org/</dc:title>
     </cc:Agent>
    </dc:creator>
   </cc:Work>
  </rdf:RDF>
 </metadata>
 <defs>
  <style type="text/css">*{stroke-linejoin: round; stroke-linecap: butt}</style>
 </defs>
 <g id="figure_1">
  <g id="patch_1">
   <path d="M 0 345.6 
L 567.36 345.6 
L 567.36 0 
L 0 0 
z
" style="fill: #ffffff"/>
  </g>
  <g id="axes_1">
   <g id="patch_2">
    <path d="M 0 345.6 
L 567.36 345.6 
L 567.36 0 
L 0 0 
z
" style="fill: #212830"/>
   </g>
   <g id="patch_3">
    <path d="M 517.787139 139.035795 
C 506.193045 93.388077 471.99037 56.896548 427.213329 42.400755 
" clip-path="url(#p92926b6161)" style="fill: none; stroke: #ff0000; stroke-width: 0.36; stroke-linejoin: miter"/>
   </g>
   <g id="patch_4">
    <path d="M 427.213329 42.400755 
C 418.177548 39.475577 408.290314 42.759699 402.795221 50.511421 
" clip-path="url(#p92926b6161)" style="fill: none; stroke: #ff0000; stroke-width: 0.36; stroke-linejoin: miter"/>
   </g>
   <g id="patch_5">
    <path d="M 365.655553 47.713196 
C 369.086246 54.526937 375.832985 59.043857 383.435235 59.616636 
C 391.037484 60.189414 398.383891 56.734318 402.795221 50.511421 
" clip-path="url(#p92926b6161)" style="fill: none; stroke: #ff0000; stroke-width: 0.36; stroke-linejoin: miter"/>
   </g>
   <g id="patch_6">
    <path d="M 365.655553 47.713196 
C 361.96158 40.37655 354.452931 35.748371 346.244101 35.748371 
" clip-path="url(#p92926b6161)" style="fill: none; stroke: #ff0000; stroke-width: 0.36; stroke-linejoin: miter"/>
   </g>
   <g id="line2d_1">
    <path d="M 195.31318 35.748371 
L 346.244101 35.748371 
" clip-path="url(#p92926b6161)" style="fill: none; stroke: #ff0000; stroke-width: 0.36; stroke-linecap: square"/>
   </g>
   <g id="patch_7">
    <path d="M 177.159496 25.958969 
C 181.180632 32.069925 188.002024 35.748371 195.31318 35.748371 
" clip-path="url(#p92926b6161)" style="fill: none; stroke: #ff0000; stroke-width: 0.36; stroke-linejoin: miter"/>
   </g>
   <g id="patch_8">
    <path d="M 177.159496 25.958969 
C 172.862656 19.429023 165.394883 15.709091 157.598829 16.215187 
C 149.802776 16.721284 142.877753 21.375553 139.459812 28.406319 
" clip-path="url(#p92926b6161)" style="fill: none; stroke: #ff0000; stroke-width: 0.36; stroke-linejoin: miter"/>
   </g>
   <g id="patch_9">
    <path d="M 125.268882 39.972565 
C 131.469463 38.395128 136.660787 34.163965 139.459812 28.406319 
" clip-path="url(#p92926b6161)" style="fill: none; stroke: #ff0000; stroke-width: 0.36; stroke-linejoin: miter"/>
   </g>
   <g id="patch_10">
    <path d="M 125.268882 39.972565 
C 79.658039 51.576033 43.195988 85.80636 28.711906 130.619602 
" clip-path="url(#p92926b6161)" style="fill: none; stroke: #ff0000; stroke-width: 0.36; stroke-linejoin: miter"/>
   </g>
   <g id="patch_11">
    <path d="M 28.711906 130.619602 
C 25.789091 139.662689 29.07056 149.557916 36.81602 155.057452 
" clip-path="url(#p92926b6161)" style="fill: none; stroke: #ff0000; stroke-width: 0.36; stroke-linejoin: miter"/>
   </g>
   <g id="patch_12">
    <path d="M 36.81602 190.542548 
C 42.561407 186.463131 45.975214 179.850143 45.975214 172.8 
C 45.975214 165.749857 42.561407 159.136869 36.81602 155.057452 
" clip-path="url(#p92926b6161)" style="fill: none; stroke: #ff0000; stroke-width: 0.36; stroke-linejoin: miter"/>
   </g>
   <g id="patch_13">
    <path d="M 36.81602 190.542548 
C 29.07056 196.042084 25.789091 205.937311 28.711906 214.980398 
" clip-path="url(#p92926b6161)" style="fill: none; stroke: #ff0000; stroke-width: 0.36; stroke-linejoin: miter"/>
   </g>
   <g id="patch_14">
    <path d="M 28.711906 214.980398 
C 43.195988 259.79364 79.658039 294.023967 125.268882 305.627435 
" clip-path="url(#p92926b6161)" style="fill: none; stroke: #ff0000; stroke-width: 0.36; stroke-linejoin: miter"/>
   </g>
   <g id="patch_15">
    <path d="M 139.459812 317.193681 
C 136.660787 311.436035 131.469463 307.204872 125.268882 305.627435 
" clip-path="url(#p92926b6161)" style="fill: none; stroke: #ff0000; stroke-width: 0.36; stroke-linejoin: miter"/>
   </g>
   <g id="patch_16">
    <path d="M 139.459812 317.193681 
C 142.877753 324.224447 149.802776 328.878716 157.598829 329.384813 
C 165.394883 329.890909 172.862656 326.170977 177.159496 319.641031 
" clip-path="url(#p92926b6161)" style="fill: none; stroke: #ff0000; stroke-width: 0.36; stroke-linejoin: miter"/>
   </g>
   <g id="patch_17">
    <path d="M 195.31318 309.851629 
C 188.002024 309.851629 181.180632 313.530075 177.159496 319.641031 
" clip-path="url(#p92926b6161)" style="fill: none; stroke: #ff0000; stroke-width: 0.36; stroke-linejoin: miter"/>
   </g>
   <g id="line2d_2">
    <path d="M 195.31318 309.851629 
L 346.244101 309.851629 
" clip-path="url(#p92926b6161)" style="fill: none; stroke: #ff0000; stroke-width: 0.36; stroke-linecap: square"/>
   </g>
   <g id="patch_18">
    <path d="M 346.244101 309.851629 
C 354.452931 309.851629 361.96158 305.22345 365.655553 297.886804 
" clip-path="url(#p92926b6161)" style="fill: none; stroke: #ff0000; stroke-width: 0.36; stroke-linejoin: miter"/>
   </g>
   <g id="patch_19">
    <path d="M 402.795221 295.088579 
C 398.383891 288.865682 391.037484 285.410586 383.435235 285.983364 
C 375.832985 286.556143 369.086246 291.073063 365.655553 297.886804 
" clip-path="url(#p92926b6161)" style="fill: none; stroke: #ff0000; stroke-width: 0.36; stroke-linejoin: miter"/>
   </g>
   <g id="patch_20">
    <path d="M 402.795221 295.088579 
C 408.290314 302.840301 418.177548 306.124423 427.213329 303.199245 
" clip-path="url(#p92926b6161)" style="fill: none; stroke: #ff0000; stroke-width: 0.36; stroke-linejoin: miter"/>
   </g>
   <g id="patch_21">
    <path d="M 427.213329 303.199245 
C 471.99037 288.703452 506.193045 252.211923 517.787139 206.564205 
" clip-path="url(#p92926b6161)" style="fill: none; stroke: #ff0000; stroke-width: 0.36; stroke-linejoin: miter"/>
   </g>
   <g id="patch_22">
    <path d="M 529.344042 192.361801 
C 523.591047 195.16309 519.363302 200.358611 517.787139 206.564205 
" clip-path="url(#p92926b6161)" style="fill: none; stroke: #ff0000; stroke-width: 0.36; stroke-linejoin: miter"/>
   </g>
   <g id="patch_23">
    <path d="M 529.344042 192.361801 
C 536.823841 188.719685 541.570909 181.124837 541.570909 172.8 
C 541.570909 164.475163 536.823841 156.880315 529.344042 153.238199 
" clip-path="url(#p92926b6161)" style="fill: none; stroke: #ff0000; stroke-width: 0.36; stroke-linejoin: miter"/>
   </g>
   <g id="patch_24">
    <path d="M 517.787139 139.035795 
C 519.363302 145.241389 523.591047 150.43691 529.344042 153.238199 
" clip-path="url(#p92926b6161)" style="fill: none; stroke: #ff0000; stroke-width: 0.36; stroke-linejoin: miter"/>
   </g>
   <g id="patch_25">
    <path d="M 165.309441 37.923794 
C 165.309441 41.408007 162.48721 44.232519 159.005811 44.232519 
C 155.524413 44.232519 152.702182 41.408007 152.702182 37.923794 
C 152.702182 34.439581 155.524413 31.615068 159.005811 31.615068 
C 162.48721 31.615068 165.309441 34.439581 165.309441 37.923794 
" clip-path="url(#p92926b6161)" style="fill: none; stroke: #ff0000; stroke-width: 0.36; stroke-linejoin: miter"/>
   </g>
   <g id="patch_26">
    <path d="M 526.137885 172.8 
C 526.137885 176.284213 523.315654 179.108726 519.834256 179.108726 
C 516.352857 179.108726 513.530626 176.284213 513.530626 172.8 
C 513.530626 169.315787 516.352857 166.491274 519.834256 166.491274 
C 523.315654 166.491274 526.137885 169.315787 526.137885 172.8 
" clip-path="url(#p92926b6161)" style="fill: none; stroke: #ff0000; stroke-width: 0.36; stroke-linejoin: miter"/>
   </g>
   <g id="patch_27">
    <path d="M 331.812205 258.729196 
C 331.812205 268.340818 324.02674 276.132577 314.422882 276.132577 
C 304.819025 276.132577 297.03356 268.340818 297.03356 258.729196 
C 297.03356 249.117574 304.819025 241.325815 314.422882 241.325815 
C 324.02674 241.325815 331.812205 249.117574 331.812205 258.729196 
" clip-path="url(#p92926b6161)" style="fill: none; stroke: #ff0000; stroke-width: 0.36; stroke-linejoin: miter"/>
   </g>
   <g id="patch_28">
    <path d="M 261.168082 172.8 
C 261.168082 176.404358 258.248532 179.326268 254.647086 179.326268 
C 251.045639 179.326268 248.12609 176.404358 248.12609 172.8 
C 248.12609 169.195642 251.045639 166.273732 254.647086 166.273732 
C 258.248532 166.273732 261.168082 169.195642 261.168082 172.8 
" clip-path="url(#p92926b6161)" style="fill: none; stroke: #ff0000; stroke-width: 0.36; stroke-linejoin: miter"/>
   </g>
   <g id="patch_29">
    <path d="M 170.960971 172.8 
C 170.960971 179.40799 165.608463 184.764825 159.005811 184.764825 
C 152.403159 184.764825 147.050652 179.40799 147.050652 172.8 
C 147.050652 166.19201 152.403159 160.835175 159.005811 160.835175 
C 165.608463 160.835175 170.960971 166.19201 170.960971 172.8 
" clip-path="url(#p92926b6161)" style="fill: none; stroke: #ff0000; stroke-width: 0.36; stroke-linejoin: miter"/>
   </g>
   <g id="patch_30">
    <path d="M 165.309441 307.676206 
C 165.309441 311.160419 162.48721 313.984932 159.005811 313.984932 
C 155.524413 313.984932 152.702182 311.160419 152.702182 307.676206 
C 152.702182 304.191993 155.524413 301.367481 159.005811 301.367481 
C 162.48721 301.367481 165.309441 304.191993 165.309441 307.676206 
" clip-path="url(#p92926b6161)" style="fill: none; stroke: #ff0000; stroke-width: 0.36; stroke-linejoin: miter"/>
   </g>
   <g id="patch_31">
    <path d="M 346.272483 197.271407 
Q 347.029027 197.528765 347.744575 198.367977 
Q 348.460124 199.207188 349.183126 200.676741 
L 351.572015 205.432273 
L 349.041507 205.432273 
L 346.820325 200.967668 
Q 345.955704 199.218378 345.146985 198.647714 
Q 344.338266 198.07705 342.94071 198.07705 
L 340.376661 198.07705 
L 340.376661 205.432273 
L 338.02504 205.432273 
L 338.02504 188.028891 
L 343.335752 188.028891 
Q 346.317205 188.028891 347.78557 189.278384 
Q 349.253936 190.524147 349.253936 193.041781 
Q 349.253936 194.686636 348.489939 195.772016 
Q 347.725941 196.853666 346.272483 197.271407 
z
M 340.376661 189.964672 
L 340.376661 196.141269 
L 343.335752 196.141269 
Q 345.03518 196.141269 345.903528 195.354275 
Q 346.771877 194.567281 346.771877 193.041781 
Q 346.771877 191.516281 345.903528 190.740477 
Q 345.03518 189.964672 343.335752 189.964672 
L 340.376661 189.964672 
z
M 359.897256 198.871504 
Q 357.299665 198.871504 356.297152 199.464547 
Q 355.294638 200.057589 355.294638 201.493573 
Q 355.294638 202.634901 356.047455 203.30627 
Q 356.800272 203.97391 358.08975 203.97391 
Q 359.874895 203.97391 360.951945 202.709498 
Q 362.028995 201.445086 362.028995 199.348922 
L 362.028995 198.871504 
L 359.897256 198.871504 
z
M 364.171914 197.983804 
L 364.171914 205.432273 
L 362.028995 205.432273 
L 362.028995 203.451734 
Q 361.294812 204.637819 360.199128 205.204753 
Q 359.103444 205.771687 357.519547 205.771687 
Q 355.518247 205.771687 354.33312 204.645279 
Q 353.151719 203.518871 353.151719 201.631577 
Q 353.151719 199.430978 354.623812 198.312029 
Q 356.099631 197.193081 359.021454 197.193081 
L 362.028995 197.193081 
L 362.028995 196.980481 
Q 362.028995 195.499738 361.056296 194.690366 
Q 360.083597 193.880993 358.32454 193.880993 
Q 357.206495 193.880993 356.144352 194.14954 
Q 355.085937 194.418088 354.109511 194.955183 
L 354.109511 192.970914 
Q 355.283458 192.515875 356.390322 192.292086 
Q 357.497187 192.064566 358.544422 192.064566 
Q 361.376802 192.064566 362.774358 193.534119 
Q 364.171914 194.999941 364.171914 197.983804 
z
M 374.010242 206.644467 
Q 373.104625 208.97561 372.240004 209.684278 
Q 371.37911 210.396675 369.936832 210.396675 
L 368.222497 210.396675 
L 368.222497 208.602627 
L 369.48216 208.602627 
Q 370.365416 208.602627 370.853629 208.181157 
Q 371.345568 207.763416 371.938132 206.200617 
L 372.321994 205.223402 
L 367.04855 192.377872 
L 369.318181 192.377872 
L 373.395317 202.586413 
L 377.472454 192.377872 
L 379.742084 192.377872 
L 374.010242 206.644467 
z
M 387.752875 193.880993 
Q 386.031086 193.880993 385.028573 195.227461 
Q 384.026059 196.573929 384.026059 198.916262 
Q 384.026059 201.258594 385.021119 202.605062 
Q 386.019906 203.951531 387.752875 203.951531 
Q 389.46721 203.951531 390.465997 202.601333 
Q 391.46851 201.247405 391.46851 198.916262 
Q 391.46851 196.596308 390.465997 195.23865 
Q 389.46721 193.880993 387.752875 193.880993 
z
M 387.752875 192.064566 
Q 390.547987 192.064566 392.143064 193.884723 
Q 393.741868 195.701149 393.741868 198.916262 
Q 393.741868 202.120185 392.143064 203.947801 
Q 390.547987 205.771687 387.752875 205.771687 
Q 384.946583 205.771687 383.355232 203.947801 
Q 381.767609 202.120185 381.767609 198.916262 
Q 381.767609 195.701149 383.355232 193.884723 
Q 384.946583 192.064566 387.752875 192.064566 
z
M 408.13716 197.551144 
L 408.13716 205.432273 
L 405.994241 205.432273 
L 405.994241 197.622011 
Q 405.994241 195.768286 405.271239 194.850748 
Q 404.548236 193.929481 403.105959 193.929481 
Q 401.369262 193.929481 400.366749 195.03724 
Q 399.364236 196.141269 399.364236 198.054671 
L 399.364236 205.432273 
L 397.210136 205.432273 
L 397.210136 192.377872 
L 399.364236 192.377872 
L 399.364236 194.406899 
Q 400.135686 193.228273 401.175468 192.646419 
Q 402.218976 192.064566 403.582991 192.064566 
Q 405.830261 192.064566 406.981847 193.455792 
Q 408.13716 194.847018 408.13716 197.551144 
z
M 411.663659 188.028891 
L 414.190441 188.028891 
L 418.513547 194.500144 
L 422.855287 188.028891 
L 425.382069 188.028891 
L 419.791845 196.387438 
L 425.75475 205.432273 
L 423.227969 205.432273 
L 418.338387 198.032292 
L 413.411536 205.432273 
L 410.873575 205.432273 
L 417.078723 196.141269 
L 411.663659 188.028891 
z
" clip-path="url(#p92926b6161)" style="fill: #ffffff"/>
   </g>
   <g id="patch_32">
    <path d="M 337.886798 141.256837 
L 339.640265 141.256837 
L 341.85772 147.177941 
L 344.08822 141.256837 
L 345.841687 141.256837 
L 345.841687 149.958528 
L 344.693827 149.958528 
L 344.693827 142.317974 
L 342.452148 148.2857 
L 341.270747 148.2857 
L 339.029067 142.317974 
L 339.029067 149.958528 
L 337.886798 149.958528 
L 337.886798 141.256837 
z
M 351.094401 146.678144 
Q 349.795605 146.678144 349.294349 146.974665 
Q 348.793092 147.271186 348.793092 147.989178 
Q 348.793092 148.559842 349.1695 148.895527 
Q 349.545909 149.229347 350.190648 149.229347 
Q 351.08322 149.229347 351.621745 148.597141 
Q 352.16027 147.964935 352.16027 146.916853 
L 352.16027 146.678144 
L 351.094401 146.678144 
z
M 353.231729 146.234294 
L 353.231729 149.958528 
L 352.16027 149.958528 
L 352.16027 148.968258 
Q 351.793179 149.561301 351.245337 149.844768 
Q 350.697495 150.128235 349.905546 150.128235 
Q 348.904896 150.128235 348.312333 149.565031 
Q 347.721632 149.001827 347.721632 148.05818 
Q 347.721632 146.957881 348.457678 146.398406 
Q 349.195588 145.838932 350.6565 145.838932 
L 352.16027 145.838932 
L 352.16027 145.732632 
Q 352.16027 144.992261 351.67392 144.587574 
Q 351.187571 144.182888 350.308042 144.182888 
Q 349.74902 144.182888 349.217949 144.317162 
Q 348.688741 144.451436 348.200528 144.719983 
L 348.200528 143.727849 
Q 348.787502 143.500329 349.340934 143.388435 
Q 349.894366 143.274675 350.417983 143.274675 
Q 351.834173 143.274675 352.532951 144.009451 
Q 353.231729 144.742362 353.231729 146.234294 
z
M 359.7292 144.421597 
L 359.7292 140.889449 
L 360.800659 140.889449 
L 360.800659 149.958528 
L 359.7292 149.958528 
L 359.7292 148.979448 
Q 359.391923 149.561301 358.875759 149.844768 
Q 358.361458 150.128235 357.638456 150.128235 
Q 356.457056 150.128235 355.713556 149.184589 
Q 354.971919 148.239077 354.971919 146.700523 
Q 354.971919 145.161968 355.713556 144.218321 
Q 356.457056 143.274675 357.638456 143.274675 
Q 358.361458 143.274675 358.875759 143.558142 
Q 359.391923 143.839744 359.7292 144.421597 
z
M 356.078784 146.700523 
Q 356.078784 147.882878 356.565133 148.556112 
Q 357.051483 149.229347 357.901197 149.229347 
Q 358.750911 149.229347 359.239124 148.556112 
Q 359.7292 147.882878 359.7292 146.700523 
Q 359.7292 145.518167 359.239124 144.844933 
Q 358.750911 144.171699 357.901197 144.171699 
Q 357.051483 144.171699 356.565133 144.844933 
Q 356.078784 145.518167 356.078784 146.700523 
z
M 368.586909 146.42638 
L 368.586909 146.950421 
L 363.660059 146.950421 
Q 363.730868 148.05818 364.327159 148.638169 
Q 364.923449 149.218157 365.989319 149.218157 
Q 366.606107 149.218157 367.185627 149.067099 
Q 367.765147 148.916041 368.337213 148.61206 
L 368.337213 149.626573 
Q 367.759556 149.870877 367.153949 149.999556 
Q 366.548341 150.128235 365.925963 150.128235 
Q 364.364427 150.128235 363.453221 149.220022 
Q 362.542014 148.309944 362.542014 146.758335 
Q 362.542014 145.156373 363.406635 144.216457 
Q 364.271257 143.274675 365.739622 143.274675 
Q 367.055188 143.274675 367.821049 144.123211 
Q 368.586909 144.969882 368.586909 146.42638 
z
M 367.51545 146.11121 
Q 367.504269 145.232835 367.02351 144.708794 
Q 366.542751 144.182888 365.750803 144.182888 
Q 364.854503 144.182888 364.315978 144.690145 
Q 363.777454 145.197402 363.695464 146.118669 
L 367.51545 146.11121 
z
M 374.135905 143.431328 
L 375.207365 143.431328 
L 375.207365 149.958528 
L 374.135905 149.958528 
L 374.135905 143.431328 
z
M 374.135905 140.889449 
L 375.207365 140.889449 
L 375.207365 142.248972 
L 374.135905 142.248972 
L 374.135905 140.889449 
z
M 382.871794 146.017964 
L 382.871794 149.958528 
L 381.800335 149.958528 
L 381.800335 146.053397 
Q 381.800335 145.126535 381.438834 144.667766 
Q 381.077333 144.207132 380.356194 144.207132 
Q 379.487846 144.207132 378.986589 144.761012 
Q 378.485332 145.313026 378.485332 146.269727 
L 378.485332 149.958528 
L 377.408282 149.958528 
L 377.408282 143.431328 
L 378.485332 143.431328 
L 378.485332 144.445841 
Q 378.871058 143.856528 379.390948 143.565601 
Q 379.912703 143.274675 380.59471 143.274675 
Q 381.718345 143.274675 382.294138 143.970288 
Q 382.871794 144.665901 382.871794 146.017964 
z
M 388.343925 141.256837 
L 395.175178 141.256837 
L 395.175178 142.155726 
L 389.678125 148.968258 
L 395.309343 148.968258 
L 395.309343 149.958528 
L 388.211623 149.958528 
L 388.211623 149.061504 
L 393.708676 142.248972 
L 388.343925 142.248972 
L 388.343925 141.256837 
z
M 396.858534 147.383081 
L 396.858534 143.431328 
L 397.929994 143.431328 
L 397.929994 147.342053 
Q 397.929994 148.268916 398.289632 148.733279 
Q 398.651133 149.195778 399.374135 149.195778 
Q 400.24062 149.195778 400.74374 148.641898 
Q 401.248723 148.088019 401.248723 147.131318 
L 401.248723 143.431328 
L 402.320183 143.431328 
L 402.320183 149.958528 
L 401.248723 149.958528 
L 401.248723 148.955204 
Q 400.859271 149.550112 400.343107 149.839174 
Q 399.828806 150.128235 399.146799 150.128235 
Q 398.023164 150.128235 397.439917 149.428892 
Q 396.858534 148.729549 396.858534 147.383081 
z
M 399.554885 143.274675 
L 399.554885 143.274675 
z
M 408.305915 144.432787 
Q 408.125164 144.328351 407.912736 144.279864 
Q 407.700307 144.229511 407.44502 144.229511 
Q 406.535677 144.229511 406.049328 144.820689 
Q 405.562978 145.411867 405.562978 146.519626 
L 405.562978 149.958528 
L 404.485929 149.958528 
L 404.485929 143.431328 
L 405.562978 143.431328 
L 405.562978 144.445841 
Q 405.902119 143.850933 406.442507 143.563736 
Q 406.984759 143.274675 407.759936 143.274675 
Q 407.869877 143.274675 408.004043 143.289594 
Q 408.138208 143.302648 408.300325 143.332487 
L 408.305915 144.432787 
z
M 409.430016 143.431328 
L 410.501475 143.431328 
L 410.501475 149.958528 
L 409.430016 149.958528 
L 409.430016 143.431328 
z
M 409.430016 140.889449 
L 410.501475 140.889449 
L 410.501475 142.248972 
L 409.430016 142.248972 
L 409.430016 140.889449 
z
M 417.437312 143.681226 
L 417.437312 144.68455 
Q 416.982641 144.432787 416.526106 144.307837 
Q 416.069571 144.182888 415.603719 144.182888 
Q 414.560211 144.182888 413.982554 144.844933 
Q 413.406761 145.505112 413.406761 146.700523 
Q 413.406761 147.895933 413.982554 148.557977 
Q 414.560211 149.218157 415.603719 149.218157 
Q 416.069571 149.218157 416.526106 149.093208 
Q 416.982641 148.968258 417.437312 148.716495 
L 417.437312 149.70863 
Q 416.988231 149.9175 416.507472 150.021935 
Q 416.028576 150.128235 415.486324 150.128235 
Q 414.012369 150.128235 413.144021 149.201373 
Q 412.277536 148.27451 412.277536 146.700523 
Q 412.277536 145.104156 413.153338 144.190348 
Q 414.031003 143.274675 415.557134 143.274675 
Q 416.050937 143.274675 416.522379 143.377245 
Q 416.993821 143.47795 417.437312 143.681226 
z
M 424.722772 146.017964 
L 424.722772 149.958528 
L 423.651312 149.958528 
L 423.651312 146.053397 
Q 423.651312 145.126535 423.289811 144.667766 
Q 422.92831 144.207132 422.207171 144.207132 
Q 421.338823 144.207132 420.837566 144.761012 
Q 420.336309 145.313026 420.336309 146.269727 
L 420.336309 149.958528 
L 419.25926 149.958528 
L 419.25926 140.889449 
L 420.336309 140.889449 
L 420.336309 144.445841 
Q 420.722035 143.856528 421.241926 143.565601 
Q 421.76368 143.274675 422.445687 143.274675 
Q 423.569322 143.274675 424.145115 143.970288 
Q 424.722772 144.665901 424.722772 146.017964 
z
" clip-path="url(#p92926b6161)" style="fill: #ffffff"/>
   </g>
   <g id="patch_33">
    <path d="M 349.609614 232.820406 
L 349.609614 236.007545 
L 351.497246 236.007545 
Q 352.445721 236.007545 352.902256 235.614048 
Q 353.360654 235.220551 353.360654 234.411178 
Q 353.360654 233.594346 352.902256 233.208308 
Q 352.445721 232.820406 351.497246 232.820406 
L 349.609614 232.820406 
z
M 349.609614 229.241635 
L 349.609614 231.863705 
L 351.3519 231.863705 
Q 352.212795 231.863705 352.633925 231.541075 
Q 353.056918 231.21658 353.056918 230.55267 
Q 353.056918 229.894355 352.633925 229.567995 
Q 352.212795 229.241635 351.3519 229.241635 
L 349.609614 229.241635 
z
M 348.433803 228.273745 
L 351.43948 228.273745 
Q 352.784861 228.273745 353.51159 228.833219 
Q 354.240182 229.392693 354.240182 230.423991 
Q 354.240182 231.224039 353.867501 231.695863 
Q 353.494819 232.167686 352.771817 232.283311 
Q 353.640165 232.469802 354.120924 233.062845 
Q 354.601684 233.654023 354.601684 234.539857 
Q 354.601684 235.705429 353.809735 236.341365 
Q 353.017787 236.975435 351.555012 236.975435 
L 348.433803 236.975435 
L 348.433803 228.273745 
z
M 359.281866 237.581533 
Q 358.829057 238.747104 358.396747 239.101438 
Q 357.9663 239.457637 357.245161 239.457637 
L 356.387993 239.457637 
L 356.387993 238.560613 
L 357.017825 238.560613 
Q 357.459453 238.560613 357.703559 238.349877 
Q 357.949529 238.141007 358.245811 237.359608 
L 358.437742 236.871 
L 355.80102 230.448235 
L 356.935835 230.448235 
L 358.974403 235.552506 
L 361.012971 230.448235 
L 362.147787 230.448235 
L 359.281866 237.581533 
z
M 366.258232 228.273745 
L 373.613103 228.273745 
L 373.613103 229.265879 
L 370.527299 229.265879 
L 370.527299 236.975435 
L 369.345899 236.975435 
L 369.345899 229.265879 
L 366.258232 229.265879 
L 366.258232 228.273745 
z
M 375.201425 231.199795 
Q 374.340531 231.199795 373.839274 231.87303 
Q 373.338017 232.546264 373.338017 233.71743 
Q 373.338017 234.888596 373.835547 235.56183 
Q 374.33494 236.235064 375.201425 236.235064 
Q 376.058593 236.235064 376.557986 235.559965 
Q 377.059243 234.883001 377.059243 233.71743 
Q 377.059243 232.557453 376.557986 231.878624 
Q 376.058593 231.199795 375.201425 231.199795 
z
M 375.201425 230.291582 
Q 376.598981 230.291582 377.39652 231.20166 
Q 378.195922 232.109874 378.195922 233.71743 
Q 378.195922 235.319391 377.39652 236.233199 
Q 376.598981 237.145143 375.201425 237.145143 
Q 373.798279 237.145143 373.002604 236.233199 
Q 372.208792 235.319391 372.208792 233.71743 
Q 372.208792 232.109874 373.002604 231.20166 
Q 373.798279 230.291582 375.201425 230.291582 
z
M 379.86111 234.399989 
L 379.86111 230.448235 
L 380.932569 230.448235 
L 380.932569 234.35896 
Q 380.932569 235.285823 381.292207 235.750187 
Q 381.653708 236.212685 382.37671 236.212685 
Q 383.243195 236.212685 383.746315 235.658806 
Q 384.251299 235.104926 384.251299 234.148225 
L 384.251299 230.448235 
L 385.322758 230.448235 
L 385.322758 236.975435 
L 384.251299 236.975435 
L 384.251299 235.972111 
Q 383.861846 236.567019 383.345682 236.856081 
Q 382.831382 237.145143 382.149374 237.145143 
Q 381.02574 237.145143 380.442493 236.4458 
Q 379.86111 235.746457 379.86111 234.399989 
z
M 382.557461 230.291582 
L 382.557461 230.291582 
z
M 388.589778 228.59451 
L 388.589778 230.448235 
L 390.796053 230.448235 
L 390.796053 231.281852 
L 388.589778 231.281852 
L 388.589778 234.825189 
Q 388.589778 235.623372 388.807797 235.850892 
Q 389.025816 236.078412 389.696642 236.078412 
L 390.796053 236.078412 
L 390.796053 236.975435 
L 389.696642 236.975435 
Q 388.455613 236.975435 387.984171 236.512937 
Q 387.512728 236.048573 387.512728 234.825189 
L 387.512728 231.281852 
L 386.72637 231.281852 
L 386.72637 230.448235 
L 387.512728 230.448235 
L 387.512728 228.59451 
L 388.589778 228.59451 
z
M 395.17017 233.695051 
Q 393.871375 233.695051 393.370118 233.991572 
Q 392.868861 234.288094 392.868861 235.006086 
Q 392.868861 235.57675 393.24527 235.912434 
Q 393.621678 236.246254 394.266417 236.246254 
Q 395.15899 236.246254 395.697515 235.614048 
Q 396.23604 234.981842 396.23604 233.93376 
L 396.23604 233.695051 
L 395.17017 233.695051 
z
M 397.307499 233.251201 
L 397.307499 236.975435 
L 396.23604 236.975435 
L 396.23604 235.985166 
Q 395.868948 236.578209 395.321106 236.861676 
Q 394.773264 237.145143 393.981316 237.145143 
Q 392.980666 237.145143 392.388102 236.581938 
Q 391.797402 236.018734 391.797402 235.075088 
Q 391.797402 233.974788 392.533448 233.415314 
Q 393.271358 232.855839 394.732269 232.855839 
L 396.23604 232.855839 
L 396.23604 232.749539 
Q 396.23604 232.009168 395.74969 231.604482 
Q 395.263341 231.199795 394.383812 231.199795 
Q 393.82479 231.199795 393.293718 231.334069 
Q 392.764511 231.468343 392.276298 231.736891 
L 392.276298 230.744756 
Q 392.863271 230.517237 393.416703 230.405342 
Q 393.970135 230.291582 394.493753 230.291582 
Q 395.909943 230.291582 396.608721 231.026358 
Q 397.307499 231.75927 397.307499 233.251201 
z
M 400.57382 228.59451 
L 400.57382 230.448235 
L 402.780095 230.448235 
L 402.780095 231.281852 
L 400.57382 231.281852 
L 400.57382 234.825189 
Q 400.57382 235.623372 400.791839 235.850892 
Q 401.009858 236.078412 401.680685 236.078412 
L 402.780095 236.078412 
L 402.780095 236.975435 
L 401.680685 236.975435 
Q 400.439655 236.975435 399.968213 236.512937 
Q 399.49677 236.048573 399.49677 234.825189 
L 399.49677 231.281852 
L 398.710412 231.281852 
L 398.710412 230.448235 
L 399.49677 230.448235 
L 399.49677 228.59451 
L 400.57382 228.59451 
z
M 404.18953 230.448235 
L 405.26099 230.448235 
L 405.26099 236.975435 
L 404.18953 236.975435 
L 404.18953 230.448235 
z
M 404.18953 227.906357 
L 405.26099 227.906357 
L 405.26099 229.265879 
L 404.18953 229.265879 
L 404.18953 227.906357 
z
M 407.130221 228.273745 
L 408.393612 228.273745 
L 410.555165 231.509371 
L 412.726035 228.273745 
L 413.989425 228.273745 
L 411.194314 232.453018 
L 414.175766 236.975435 
L 412.912376 236.975435 
L 410.467585 233.275445 
L 408.004159 236.975435 
L 406.735178 236.975435 
L 409.837753 232.329934 
L 407.130221 228.273745 
z
" clip-path="url(#p92926b6161)" style="fill: #ffffff"/>
   </g>
   <g id="line2d_3">
    <path d="M 337.246368 216.308454 
L 424.192981 216.308454 
" clip-path="url(#p92926b6161)" style="fill: none; stroke: #ffffff; stroke-width: 0.36; stroke-linecap: square"/>
   </g>
   <g id="line2d_4">
    <path d="M 337.246368 220.659299 
L 424.192981 220.659299 
" clip-path="url(#p92926b6161)" style="fill: none; stroke: #ffffff; stroke-width: 0.36; stroke-linecap: square"/>
   </g>
  </g>
 </g>
 <defs>
  <clipPath id="p92926b6161">
   <rect x="0" y="0" width="567.36" height="345.6"/>
  </clipPath>
 </defs>
</svg>
