<?xml version="1.0" encoding="utf-8" standalone="no"?>
<!DOCTYPE svg PUBLIC "-//W3C//DTD SVG 1.1//EN"
  "http://www.w3.org/Graphics/SVG/1.1/DTD/svg11.dtd">
<svg xmlns:xlink="http://www.w3.org/1999/xlink" width="369.936pt" height="225.144pt" viewBox="0 0 369.936 225.144" xmlns="http://www.w3.org/2000/svg" version="1.1">
 <metadata>
  <rdf:RDF xmlns:dc="http://purl.org/dc/elements/1.1/" xmlns:cc="http://creativecommons.org/ns#" xmlns:rdf="http://www.w3.org/1999/02/22-rdf-syntax-ns#">
   <cc:Work>
    <dc:type rdf:resource="http://purl.org/dc/dcmitype/StillImage"/>
    <dc:date>2022-10-26T00:21:46.860103</dc:date>
    <dc:format>image/svg+xml</dc:format>
    <dc:creator>
     <cc:Agent>
      <dc:title>Matplotlib v3.5.2, https://matplotlib.org/</dc:title>
     </cc:Agent>
    </dc:creator>
   </cc:Work>
  </rdf:RDF>
 </metadata>
 <defs>
  <style type="text/css">*{stroke-linejoin: round; stroke-linecap: butt}</style>
 </defs>
 <g id="figure_1">
  <g id="patch_1">
   <path d="M 0 225.144 
L 369.936 225.144 
L 369.936 0 
L 0 0 
z
" style="fill: #ffffff"/>
  </g>
  <g id="axes_1">
   <g id="patch_2">
    <path d="M 337.612985 90.576027 
C 330.053282 60.838441 307.752097 37.06573 278.556102 27.622325 
" clip-path="url(#pcb748fa874)" style="fill: none; stroke: #ff0000; stroke-width: 0.25; stroke-linejoin: miter"/>
   </g>
   <g id="patch_3">
    <path d="M 278.556102 27.622325 
C 272.664498 25.716694 266.21772 27.856162 262.634752 32.906086 
" clip-path="url(#pcb748fa874)" style="fill: none; stroke: #ff0000; stroke-width: 0.25; stroke-linejoin: miter"/>
   </g>
   <g id="patch_4">
    <path d="M 238.418558 31.083159 
C 240.655474 35.522027 245.054553 38.464613 250.011451 38.837754 
C 254.968349 39.210896 259.758431 36.960044 262.634752 32.906086 
" clip-path="url(#pcb748fa874)" style="fill: none; stroke: #ff0000; stroke-width: 0.25; stroke-linejoin: miter"/>
   </g>
   <g id="patch_5">
    <path d="M 238.418558 31.083159 
C 236.009974 26.30364 231.114106 23.288574 225.7617 23.288574 
" clip-path="url(#pcb748fa874)" style="fill: none; stroke: #ff0000; stroke-width: 0.25; stroke-linejoin: miter"/>
   </g>
   <g id="line2d_1">
    <path d="M 127.350142 23.288574 
L 225.7617 23.288574 
" clip-path="url(#pcb748fa874)" style="fill: none; stroke: #ff0000; stroke-width: 0.25; stroke-linecap: square"/>
   </g>
   <g id="patch_6">
    <path d="M 115.513387 16.911187 
C 118.13529 20.89222 122.583045 23.288574 127.350142 23.288574 
" clip-path="url(#pcb748fa874)" style="fill: none; stroke: #ff0000; stroke-width: 0.25; stroke-linejoin: miter"/>
   </g>
   <g id="patch_7">
    <path d="M 115.513387 16.911187 
C 112.711716 12.657199 107.842501 10.233818 102.759237 10.563519 
C 97.675973 10.89322 93.160647 13.925282 90.932045 18.505533 
" clip-path="url(#pcb748fa874)" style="fill: none; stroke: #ff0000; stroke-width: 0.25; stroke-linejoin: miter"/>
   </g>
   <g id="patch_8">
    <path d="M 81.679126 26.040461 
C 85.722094 25.012826 89.106995 22.2564 90.932045 18.505533 
" clip-path="url(#pcb748fa874)" style="fill: none; stroke: #ff0000; stroke-width: 0.25; stroke-linejoin: miter"/>
   </g>
   <g id="patch_9">
    <path d="M 81.679126 26.040461 
C 51.939467 33.599637 28.1651 55.899268 18.721037 85.093228 
" clip-path="url(#pcb748fa874)" style="fill: none; stroke: #ff0000; stroke-width: 0.25; stroke-linejoin: miter"/>
   </g>
   <g id="patch_10">
    <path d="M 18.721037 85.093228 
C 16.815273 90.984422 18.95489 97.43075 24.005166 101.013469 
" clip-path="url(#pcb748fa874)" style="fill: none; stroke: #ff0000; stroke-width: 0.25; stroke-linejoin: miter"/>
   </g>
   <g id="patch_11">
    <path d="M 24.005166 124.130531 
C 27.751334 121.47296 29.97724 117.164875 29.97724 112.572 
C 29.97724 107.979125 27.751334 103.67104 24.005166 101.013469 
" clip-path="url(#pcb748fa874)" style="fill: none; stroke: #ff0000; stroke-width: 0.25; stroke-linejoin: miter"/>
   </g>
   <g id="patch_12">
    <path d="M 24.005166 124.130531 
C 18.95489 127.71325 16.815273 134.159578 18.721037 140.050772 
" clip-path="url(#pcb748fa874)" style="fill: none; stroke: #ff0000; stroke-width: 0.25; stroke-linejoin: miter"/>
   </g>
   <g id="patch_13">
    <path d="M 18.721037 140.050772 
C 28.1651 169.244732 51.939467 191.544363 81.679126 199.103539 
" clip-path="url(#pcb748fa874)" style="fill: none; stroke: #ff0000; stroke-width: 0.25; stroke-linejoin: miter"/>
   </g>
   <g id="patch_14">
    <path d="M 90.932045 206.638467 
C 89.106995 202.8876 85.722094 200.131174 81.679126 199.103539 
" clip-path="url(#pcb748fa874)" style="fill: none; stroke: #ff0000; stroke-width: 0.25; stroke-linejoin: miter"/>
   </g>
   <g id="patch_15">
    <path d="M 90.932045 206.638467 
C 93.160647 211.218718 97.675973 214.25078 102.759237 214.580481 
C 107.842501 214.910182 112.711716 212.486801 115.513387 208.232813 
" clip-path="url(#pcb748fa874)" style="fill: none; stroke: #ff0000; stroke-width: 0.25; stroke-linejoin: miter"/>
   </g>
   <g id="patch_16">
    <path d="M 127.350142 201.855426 
C 122.583045 201.855426 118.13529 204.25178 115.513387 208.232813 
" clip-path="url(#pcb748fa874)" style="fill: none; stroke: #ff0000; stroke-width: 0.25; stroke-linejoin: miter"/>
   </g>
   <g id="line2d_2">
    <path d="M 127.350142 201.855426 
L 225.7617 201.855426 
" clip-path="url(#pcb748fa874)" style="fill: none; stroke: #ff0000; stroke-width: 0.25; stroke-linecap: square"/>
   </g>
   <g id="patch_17">
    <path d="M 225.7617 201.855426 
C 231.114106 201.855426 236.009974 198.84036 238.418558 194.060841 
" clip-path="url(#pcb748fa874)" style="fill: none; stroke: #ff0000; stroke-width: 0.25; stroke-linejoin: miter"/>
   </g>
   <g id="patch_18">
    <path d="M 262.634752 192.237914 
C 259.758431 188.183956 254.968349 185.933104 250.011451 186.306246 
C 245.054553 186.679387 240.655474 189.621973 238.418558 194.060841 
" clip-path="url(#pcb748fa874)" style="fill: none; stroke: #ff0000; stroke-width: 0.25; stroke-linejoin: miter"/>
   </g>
   <g id="patch_19">
    <path d="M 262.634752 192.237914 
C 266.21772 197.287838 272.664498 199.427306 278.556102 197.521675 
" clip-path="url(#pcb748fa874)" style="fill: none; stroke: #ff0000; stroke-width: 0.25; stroke-linejoin: miter"/>
   </g>
   <g id="patch_20">
    <path d="M 278.556102 197.521675 
C 307.752097 188.07827 330.053282 164.305559 337.612985 134.567973 
" clip-path="url(#pcb748fa874)" style="fill: none; stroke: #ff0000; stroke-width: 0.25; stroke-linejoin: miter"/>
   </g>
   <g id="patch_21">
    <path d="M 345.148437 125.315698 
C 341.39731 127.140621 338.640691 130.525287 337.612985 134.567973 
" clip-path="url(#pcb748fa874)" style="fill: none; stroke: #ff0000; stroke-width: 0.25; stroke-linejoin: miter"/>
   </g>
   <g id="patch_22">
    <path d="M 345.148437 125.315698 
C 350.025494 122.943011 353.120727 117.995285 353.120727 112.572 
C 353.120727 107.148715 350.025494 102.200989 345.148437 99.828302 
" clip-path="url(#pcb748fa874)" style="fill: none; stroke: #ff0000; stroke-width: 0.25; stroke-linejoin: miter"/>
   </g>
   <g id="patch_23">
    <path d="M 337.612985 90.576027 
C 338.640691 94.618713 341.39731 98.003379 345.148437 99.828302 
" clip-path="url(#pcb748fa874)" style="fill: none; stroke: #ff0000; stroke-width: 0.25; stroke-linejoin: miter"/>
   </g>
   <g id="patch_24">
    <path d="M 216.351664 168.551291 
C 216.351664 174.812862 211.275303 179.888869 205.013296 179.888869 
C 198.751288 179.888869 193.674928 174.812862 193.674928 168.551291 
C 193.674928 162.289719 198.751288 157.213713 205.013296 157.213713 
C 211.275303 157.213713 216.351664 162.289719 216.351664 168.551291 
" clip-path="url(#pcb748fa874)" style="fill: none; stroke: #ff0000; stroke-width: 0.25; stroke-linejoin: miter"/>
   </g>
   <g id="patch_25">
    <path d="M 169.439166 112.572 
C 169.439166 114.920089 167.535531 116.823592 165.187278 116.823592 
C 162.839025 116.823592 160.93539 114.920089 160.93539 112.572 
C 160.93539 110.223911 162.839025 108.320408 165.187278 108.320408 
C 167.535531 108.320408 169.439166 110.223911 169.439166 112.572 
" clip-path="url(#pcb748fa874)" style="fill: none; stroke: #ff0000; stroke-width: 0.25; stroke-linejoin: miter"/>
   </g>
   <g id="patch_26">
    <path d="M 119.975536 112.572 
C 119.975536 121.573009 112.678268 128.869768 103.676632 128.869768 
C 94.674996 128.869768 87.377728 121.573009 87.377728 112.572 
C 87.377728 103.570991 94.674996 96.274232 103.676632 96.274232 
C 112.678268 96.274232 119.975536 103.570991 119.975536 112.572 
" clip-path="url(#pcb748fa874)" style="fill: none; stroke: #ff0000; stroke-width: 0.25; stroke-linejoin: miter"/>
   </g>
   <g id="patch_27">
    <path d="M 223.807877 69.037046 
C 224.158155 69.012934 224.498281 69.004051 224.832061 69.004051 
C 225.148073 69.004051 225.505967 69.020549 225.895588 69.037046 
L 225.895588 68.834 
L 225.814364 68.834 
C 225.262295 68.834 225.107461 68.597959 225.107461 67.988821 
L 225.107461 67.551004 
C 225.107461 67.469785 225.116345 67.339074 225.12396 67.144912 
L 225.197569 64.529426 
L 227.37412 69.11065 
L 227.544182 69.11065 
C 227.772625 68.403797 228.518871 66.820038 229.762614 64.350492 
L 229.810841 67.770547 
L 229.810841 68.127146 
C 229.810841 68.663949 229.640778 68.817503 229.063326 68.817503 
L 228.974487 68.817503 
L 228.974487 69.037046 
C 229.437718 69.020549 229.867951 69.012934 230.249958 69.012934 
C 230.671308 69.012934 231.077428 69.012934 231.468319 69.037046 
L 231.468319 68.817503 
L 231.411208 68.817503 
C 230.590084 68.817503 230.590084 68.476132 230.574854 67.486283 
L 230.517744 64.342878 
L 230.517744 64.196938 
C 230.517744 63.73374 230.582469 63.571303 231.215763 63.554806 
L 231.215763 63.35176 
C 231.062199 63.368257 230.809643 63.375871 230.43652 63.375871 
C 230.209346 63.375871 230.021516 63.375871 229.867951 63.359374 
L 227.706631 67.892375 
L 225.522465 63.359374 
C 225.351133 63.375871 225.12396 63.375871 224.839676 63.375871 
C 224.588389 63.375871 224.352332 63.375871 224.141657 63.359374 
L 224.141657 63.571303 
C 224.767336 63.603029 224.913285 63.774349 224.913285 64.374604 
L 224.913285 64.521812 
L 224.791449 67.080191 
C 224.767336 67.696943 224.767336 68.151258 224.612502 68.45202 
C 224.490666 68.688061 224.230496 68.793391 223.807877 68.817503 
L 223.807877 69.037046 
z
M 234.059111 68.525624 
C 234.066726 68.891107 234.269786 69.101767 234.562954 69.101767 
C 234.766014 69.101767 235.074411 68.955828 235.36631 68.638568 
L 235.268588 68.533238 
C 235.203862 68.597959 235.122638 68.630954 235.017301 68.630954 
C 234.716518 68.630954 234.692405 68.485015 234.692405 68.167756 
L 234.692405 66.283235 
C 234.692405 65.625874 234.400506 65.317498 233.677104 65.317498 
C 233.433432 65.317498 233.067924 65.463437 232.588194 65.764199 
C 232.255684 65.974859 232.076737 66.170291 232.076737 66.46217 
C 232.076737 66.5675 232.117349 66.608109 232.239185 66.608109 
C 232.482857 66.608109 232.628806 66.502779 232.654189 66.308616 
C 232.71003 65.910139 232.897861 65.72359 233.270984 65.72359 
C 233.791325 65.72359 234.042612 65.950748 234.042612 66.438058 
L 234.042612 66.998972 
C 232.621192 67.445674 231.947286 67.704557 231.947286 68.339076 
C 231.947286 68.785777 232.279797 69.118264 232.767141 69.118264 
C 233.141533 69.118264 233.562883 68.915219 234.059111 68.525624 
z
M 234.034998 68.232477 
C 233.782442 68.542122 233.457545 68.704558 233.18976 68.704558 
C 232.857249 68.704558 232.58058 68.435522 232.58058 68.13603 
C 232.58058 67.704557 233.067924 67.510394 234.034998 67.209633 
L 234.034998 68.232477 
z
M 238.550799 64.156329 
L 238.550799 65.455823 
C 238.314742 65.374605 238.104067 65.34161 237.917506 65.34161 
C 236.682646 65.34161 235.796797 66.242626 235.796797 67.405064 
C 235.796797 68.403797 236.438974 69.118264 237.299441 69.118264 
C 237.770287 69.118264 238.161178 68.922833 238.567298 68.525624 
L 238.60791 68.525624 
L 238.582527 68.907604 
L 238.582527 68.955828 
C 238.582527 69.061158 238.60791 69.118264 238.663751 69.118264 
C 238.713247 69.118264 239.054642 68.948213 239.76916 68.809888 
L 239.76916 68.630954 
C 239.654939 68.638568 239.5661 68.647452 239.49249 68.647452 
C 239.224705 68.647452 239.21709 68.55735 239.21709 68.248974 
L 239.21709 62.888561 
L 239.005146 62.888561 
C 238.720862 63.050998 238.412465 63.181709 238.07107 63.287039 
L 238.07107 63.399983 
C 238.541915 63.554806 238.550799 63.700745 238.550799 64.11572 
L 238.550799 64.156329 
z
M 238.567298 66.535774 
L 238.567298 67.778161 
C 238.567298 68.379685 238.355354 68.655066 237.755058 68.655066 
C 237.048155 68.655066 236.479586 67.981207 236.479586 67.047196 
C 236.479586 66.186789 236.998659 65.601763 237.697947 65.601763 
C 238.290629 65.601763 238.567298 65.910139 238.567298 66.535774 
z
M 243.245802 68.07004 
C 242.847296 68.435522 242.474173 68.614457 242.11628 68.614457 
C 241.466488 68.614457 240.938531 68.014202 240.938531 67.05481 
C 240.938531 66.958363 240.946146 66.860647 240.95503 66.755317 
L 243.033858 66.755317 
C 243.269915 66.755317 243.342255 66.729937 243.342255 66.535774 
C 243.342255 65.917753 242.814299 65.317498 241.986829 65.317498 
C 241.093365 65.317498 240.288739 66.170291 240.288739 67.298465 
C 240.288739 68.379685 240.930917 69.134762 241.783769 69.134762 
C 242.417063 69.134762 242.904407 68.826386 243.367638 68.200751 
L 243.245802 68.07004 
z
M 240.986758 66.486281 
C 241.100979 65.902524 241.474102 65.561153 241.929718 65.561153 
C 242.352337 65.561153 242.636621 65.861915 242.636621 66.268007 
C 242.636621 66.471053 242.570627 66.486281 242.335839 66.486281 
L 240.986758 66.486281 
z
M 246.680561 63.660136 
C 246.680561 63.887293 246.851893 64.066228 247.079067 64.066228 
C 247.298625 64.066228 247.477572 63.887293 247.477572 63.660136 
C 247.477572 63.432978 247.298625 63.262927 247.079067 63.262927 
C 246.851893 63.262927 246.680561 63.432978 246.680561 63.660136 
z
M 246.2186 69.037046 
C 246.429274 69.020549 246.672946 69.012934 246.940732 69.012934 
C 247.217401 69.012934 247.566411 69.020549 247.972531 69.037046 
L 247.972531 68.841614 
C 247.492802 68.826386 247.420461 68.801005 247.420461 68.427908 
L 247.420461 65.293386 
L 247.225016 65.293386 
C 246.940732 65.455823 246.632334 65.585265 246.29094 65.690595 
L 246.29094 65.788311 
C 246.730057 65.926636 246.770669 66.089073 246.770669 66.413946 
L 246.770669 68.403797 
C 246.770669 68.760396 246.737672 68.826386 246.2186 68.834 
L 246.2186 69.037046 
z
M 248.476627 69.037046 
C 248.687302 69.020549 248.930974 69.012934 249.198759 69.012934 
C 249.475429 69.012934 249.824438 69.020549 250.230558 69.037046 
L 250.230558 68.841614 
C 249.750829 68.826386 249.678489 68.801005 249.678489 68.427908 
L 249.678489 66.153794 
C 250.019883 65.910139 250.34478 65.795925 250.653177 65.795925 
C 251.262357 65.795925 251.36008 66.137296 251.36008 66.836536 
L 251.36008 68.354304 
C 251.36008 68.769279 251.36008 68.834 250.82324 68.834 
L 250.82324 69.037046 
C 251.140521 69.029432 251.43242 69.012934 251.692591 69.012934 
C 251.936263 69.012934 252.204049 69.029432 252.512446 69.037046 
L 252.512446 68.834 
C 252.017487 68.817503 252.017487 68.760396 252.017487 68.394913 
L 252.017487 66.770546 
C 252.017487 65.821306 251.830926 65.325112 251.091025 65.325112 
C 250.717903 65.325112 250.27117 65.537042 249.669605 65.917753 
L 249.669605 65.293386 
L 249.483043 65.293386 
C 249.198759 65.455823 248.890362 65.585265 248.548967 65.690595 
L 248.548967 65.853032 
C 249.019813 66.007854 249.028696 66.161408 249.028696 66.576383 
L 249.028696 68.403797 
C 249.028696 68.760396 248.995699 68.826386 248.476627 68.834 
L 248.476627 69.037046 
z
M 255.210098 69.037046 
L 260.237104 69.037046 
L 260.602612 67.689329 
L 260.423666 67.639836 
C 260.058157 68.606842 259.644423 68.712173 258.645621 68.712173 
L 256.403076 68.712173 
L 260.383054 63.375871 
L 256.460186 63.375871 
C 256.33835 63.375871 256.233013 63.384755 256.144174 63.384755 
C 255.996956 63.384755 255.908117 63.368257 255.884003 63.270541 
L 255.672059 63.270541 
L 255.437271 64.60303 
L 255.623833 64.60303 
C 255.851006 63.781963 256.168288 63.700745 256.947531 63.700745 
L 259.221804 63.700745 
L 255.210098 69.037046 
z
M 263.738114 69.134762 
L 264.908247 68.882224 
L 264.908247 68.704558 
C 264.794026 68.719787 264.696303 68.72867 264.631578 68.72867 
C 264.387906 68.72867 264.380291 68.630954 264.380291 68.34669 
L 264.380291 65.415214 
L 264.177231 65.415214 
L 263.047709 65.504047 
L 263.047709 65.658869 
C 263.575665 65.780697 263.714 65.869529 263.714 66.227398 
L 263.714 68.200751 
C 263.356107 68.533238 262.999482 68.695675 262.715198 68.695675 
C 262.187242 68.695675 262.056522 68.330192 262.056522 67.58273 
L 262.056522 65.415214 
L 261.869961 65.415214 
L 260.928269 65.455823 
L 260.928269 65.625874 
C 261.430843 65.707093 261.430843 65.917753 261.430843 66.421561 
L 261.430843 68.078923 
C 261.430843 68.776893 261.699898 69.125879 262.243084 69.125879 
C 262.641589 69.125879 263.153047 68.915219 263.738114 68.468517 
L 263.738114 69.134762 
z
M 261.633903 64.212167 
C 261.633903 64.472319 261.821734 64.667751 262.080635 64.667751 
C 262.340806 64.667751 262.527368 64.472319 262.527368 64.212167 
C 262.527368 63.968512 262.324308 63.765466 262.080635 63.765466 
C 261.836963 63.765466 261.633903 63.977395 261.633903 64.212167 
z
M 263.153047 64.212167 
C 263.153047 64.472319 263.356107 64.667751 263.608663 64.667751 
C 263.867564 64.667751 264.046511 64.472319 264.046511 64.212167 
C 264.046511 63.968512 263.852335 63.765466 263.608663 63.765466 
C 263.364991 63.765466 263.153047 63.977395 263.153047 64.212167 
z
M 265.403713 69.037046 
C 265.647385 69.020549 265.906287 69.012934 266.190571 69.012934 
C 266.646187 69.012934 267.076421 69.020549 267.449544 69.037046 
L 267.449544 68.841614 
C 266.735026 68.834 266.605575 68.866995 266.605575 68.427908 
L 266.605575 66.877145 
C 266.605575 66.292119 266.825134 66.007854 267.238869 66.007854 
C 267.466042 66.007854 267.587878 66.194403 267.75921 66.194403 
C 267.96227 66.194403 268.099336 66.031966 268.099336 65.755316 
C 268.099336 65.504047 267.936888 65.349224 267.652604 65.349224 
C 267.271866 65.349224 266.954585 65.61826 266.596691 66.129682 
L 266.596691 65.293386 
L 266.41013 65.293386 
C 266.094118 65.471052 265.776836 65.601763 265.468439 65.690595 
L 265.468439 65.788311 
C 265.946899 65.943134 265.955783 66.096687 265.955783 66.511662 
L 265.955783 68.403797 
C 265.955783 68.760396 265.922786 68.826386 265.403713 68.834 
L 265.403713 69.037046 
z
M 269.025289 63.660136 
C 269.025289 63.887293 269.196621 64.066228 269.423795 64.066228 
C 269.643354 64.066228 269.8223 63.887293 269.8223 63.660136 
C 269.8223 63.432978 269.643354 63.262927 269.423795 63.262927 
C 269.196621 63.262927 269.025289 63.432978 269.025289 63.660136 
z
M 268.563328 69.037046 
C 268.774003 69.020549 269.017675 69.012934 269.28546 69.012934 
C 269.56213 69.012934 269.911139 69.020549 270.317259 69.037046 
L 270.317259 68.841614 
C 269.83753 68.826386 269.76519 68.801005 269.76519 68.427908 
L 269.76519 65.293386 
L 269.569744 65.293386 
C 269.28546 65.455823 268.977063 65.585265 268.635668 65.690595 
L 268.635668 65.788311 
C 269.074785 65.926636 269.115397 66.089073 269.115397 66.413946 
L 269.115397 68.403797 
C 269.115397 68.760396 269.0824 68.826386 268.563328 68.834 
L 268.563328 69.037046 
z
M 273.882486 68.13603 
C 273.54236 68.411411 273.217464 68.549736 272.876069 68.549736 
C 272.12094 68.549736 271.502875 67.866994 271.502875 66.94948 
C 271.502875 66.153794 271.982605 65.592879 272.567672 65.592879 
C 272.843072 65.592879 273.070246 65.714707 273.289804 65.950748 
C 273.404026 66.072575 273.461136 66.202017 273.638814 66.202017 
C 273.801262 66.202017 273.931982 66.056078 273.931982 65.861915 
C 273.931982 65.537042 273.574088 65.317498 272.916681 65.317498 
C 272.291002 65.317498 271.811273 65.520544 271.405153 65.967245 
C 271.039645 66.35684 270.853083 66.836536 270.853083 67.347958 
C 270.853083 68.370802 271.576485 69.125879 272.494063 69.125879 
C 273.062631 69.125879 273.55759 68.841614 274.013206 68.273086 
L 273.882486 68.13603 
z
M 274.427702 69.037046 
C 274.638377 69.020549 274.882049 69.012934 275.149834 69.012934 
C 275.426504 69.012934 275.775513 69.020549 276.181633 69.037046 
L 276.181633 68.841614 
C 275.701904 68.826386 275.629564 68.801005 275.629564 68.427908 
L 275.629564 66.153794 
C 275.970958 65.910139 276.295855 65.795925 276.604252 65.795925 
C 277.123325 65.795925 277.311155 66.072575 277.311155 66.689327 
L 277.311155 68.420294 
C 277.311155 68.785777 277.294656 68.826386 276.774315 68.834 
L 276.774315 69.037046 
C 277.091596 69.029432 277.383495 69.012934 277.643666 69.012934 
C 277.879723 69.012934 278.155124 69.029432 278.472405 69.037046 
L 278.472405 68.834 
C 277.976177 68.817503 277.968562 68.776893 277.968562 68.394913 
L 277.968562 66.5675 
C 277.968562 65.740088 277.676663 65.325112 277.0421 65.325112 
C 276.668978 65.325112 276.222245 65.537042 275.62068 65.917753 
L 275.62068 62.888561 
L 275.434118 62.888561 
C 275.149834 63.050998 274.841437 63.181709 274.500042 63.287039 
L 274.500042 63.399983 
C 274.963273 63.554806 274.979771 63.700745 274.979771 64.090339 
L 274.979771 68.403797 
C 274.979771 68.760396 274.946774 68.826386 274.427702 68.834 
L 274.427702 69.037046 
z
" clip-path="url(#pcb748fa874)"/>
   </g>
   <g id="patch_28">
    <path d="M 219.365554 121.514905 
L 219.365554 116.738249 
C 219.642224 116.705254 219.901125 116.690026 220.144797 116.690026 
C 222.045947 116.690026 223.020636 117.535204 223.020636 119.159572 
C 223.020636 120.636731 221.964723 121.611352 220.114338 121.611352 
C 219.852898 121.611352 219.609226 121.578357 219.365554 121.514905 
z
M 216.393262 127.540293 
C 217.157276 127.507298 217.951748 127.49207 218.763989 127.49207 
C 219.495005 127.49207 220.162565 127.507298 220.764131 127.540293 
L 220.764131 127.118973 
L 220.698136 127.118973 
C 219.383322 127.118973 219.350325 126.695114 219.350325 125.200189 
L 219.350325 122.11389 
C 219.642224 122.146885 220.000117 122.164652 220.421467 122.164652 
L 220.860584 122.164652 
C 222.500294 124.9743 223.703425 126.743338 224.500436 127.525065 
C 225.00301 127.49207 225.475125 127.49207 225.896474 127.49207 
C 226.269597 127.49207 226.64272 127.49207 227.066608 127.507298 
L 227.066608 127.101206 
L 227.018381 127.101206 
C 225.83048 127.101206 224.515666 125.266179 222.370844 121.855007 
C 223.850644 121.286478 224.629887 120.278863 224.629887 119.012364 
C 224.629887 117.129112 223.068863 116.16972 220.000117 116.16972 
C 219.220874 116.16972 218.439093 116.217944 217.64462 116.217944 
C 217.2385 116.217944 216.83238 116.202715 216.393262 116.184949 
L 216.393262 116.591041 
C 217.626852 116.657031 217.7893 116.819467 217.7893 117.697641 
L 217.7893 125.834707 
C 217.7893 126.875318 217.596393 127.134201 216.393262 127.134201 
L 216.393262 127.540293 
z
M 226.839688 127.540293 
C 227.504709 127.507298 228.106275 127.49207 228.641846 127.49207 
C 229.032737 127.49207 229.712988 127.507298 230.687676 127.540293 
L 230.687676 127.134201 
C 229.631764 127.134201 229.195185 126.93877 229.195185 126.322018 
C 229.195185 126.144352 229.258641 125.753489 229.454086 125.18496 
L 230.088649 123.283943 
L 233.824955 123.283943 
L 234.637195 125.73826 
C 234.748878 126.093591 234.830102 126.370241 234.830102 126.565673 
C 234.830102 127.004759 234.489977 127.101206 233.692966 127.134201 
L 233.692966 127.540293 
C 234.58643 127.507298 235.317447 127.49207 235.855556 127.49207 
C 236.617031 127.49207 237.299821 127.507298 237.901386 127.540293 
L 237.901386 127.085978 
C 236.941927 127.085978 236.667796 126.794099 236.35813 125.964149 
L 232.687818 115.796623 
L 232.362922 115.811852 
C 232.086253 116.10373 231.776586 116.347386 231.469458 116.509822 
L 231.469458 116.705254 
C 231.469458 117.469214 231.225786 118.184951 230.931349 118.96414 
L 228.657075 125.347397 
C 228.235726 126.532678 227.91083 127.134201 226.951371 127.134201 
L 226.839688 127.134201 
L 226.839688 127.540293 
z
M 230.314553 122.618967 
L 231.824813 117.842311 
L 233.548285 122.618967 
L 230.314553 122.618967 
z
M 240.566042 127.540293 
C 241.54073 127.507298 242.352971 127.49207 243.017992 127.49207 
C 243.716012 127.49207 244.447028 127.507298 245.195812 127.540293 
L 245.195812 127.118973 
L 244.985137 127.118973 
C 243.652555 127.118973 243.652555 126.646891 243.652555 124.989529 
L 243.652555 121.75856 
L 246.348178 118.070738 
C 246.949744 117.240788 247.355864 116.672259 248.038653 116.608807 
L 248.038653 116.16972 
C 247.647763 116.217944 247.127421 116.217944 246.477629 116.217944 
C 245.845604 116.217944 245.310033 116.202715 244.837919 116.184949 
L 244.837919 116.575812 
C 245.683156 116.575812 246.023282 116.672259 246.023282 117.111346 
C 246.023282 117.355001 245.845604 117.64688 245.553705 118.052971 
L 243.294662 121.124041 
L 240.87317 117.761093 
C 240.629498 117.436219 240.46705 117.210331 240.46705 116.997133 
C 240.46705 116.705254 240.776717 116.591041 241.411279 116.575812 
L 241.411279 116.202715 
C 240.662495 116.23571 239.868023 116.250939 239.055782 116.250939 
C 238.306998 116.250939 237.674974 116.23571 237.169862 116.217944 
L 237.169862 116.624036 
L 237.218089 116.624036 
C 238.030329 116.624036 238.454217 116.981904 238.974558 117.697641 
L 242.076301 122.002215 
L 242.076301 125.768717 
C 242.076301 126.809328 242.043304 127.134201 240.743719 127.134201 
L 240.566042 127.134201 
L 240.566042 127.540293 
z
M 254.454336 127.735725 
C 256.403713 127.735725 257.94697 126.93877 259.051109 125.39562 
C 259.799893 124.339781 260.188245 123.139272 260.188245 121.855007 
C 260.188245 120.215411 259.556221 118.75348 258.35309 117.598656 
C 257.200724 116.494594 255.916369 115.992055 254.291888 115.992055 
C 252.715634 115.992055 251.352593 116.575812 250.278913 117.697641 
C 249.207771 118.801703 248.623973 120.263634 248.623973 121.839778 
C 248.623973 123.494603 249.273765 125.037752 250.459129 126.159581 
C 251.548038 127.200191 252.89585 127.735725 254.454336 127.735725 
z
M 250.360137 121.530133 
C 250.360137 118.509825 252.002385 116.560584 254.096443 116.560584 
C 255.528016 116.560584 256.84283 117.420991 257.639841 118.96414 
C 258.157644 119.971756 258.434314 121.108813 258.434314 122.327089 
C 258.434314 125.18496 256.809833 127.167196 254.682779 127.167196 
C 253.365426 127.167196 252.390738 126.598668 251.548038 125.380392 
C 250.784025 124.291558 250.360137 122.943841 250.360137 121.530133 
z
M 261.423357 127.525065 
C 262.187371 127.49207 262.852393 127.474303 263.438729 127.474303 
C 264.055524 127.474303 264.834767 127.49207 265.745999 127.525065 
L 265.745999 127.101206 
C 263.926073 127.101206 263.763625 126.451459 263.763625 124.453995 
L 263.763625 118.329622 
L 272.193157 127.70273 
L 272.55105 127.70273 
L 272.55105 119.10881 
C 272.55105 117.240788 272.584048 116.657031 274.094307 116.575812 
L 274.094307 116.16972 
C 273.492742 116.184949 272.779493 116.202715 271.967253 116.202715 
C 271.203239 116.202715 270.538217 116.184949 269.984879 116.16972 
L 269.984879 116.608807 
L 270.147327 116.608807 
C 271.624589 116.608807 271.853031 117.306778 271.853031 119.271247 
L 271.853031 124.956534 
L 263.941303 116.202715 
C 263.339737 116.23571 262.88539 116.23571 262.545264 116.23571 
C 262.316822 116.23571 261.847245 116.23571 261.164456 116.217944 
L 261.164456 116.641802 
C 262.593491 116.690026 263.047838 117.144341 263.047838 118.377845 
L 263.047838 124.438766 
C 263.047838 126.370241 263.047838 127.118973 261.471584 127.118973 
L 261.423357 127.118973 
L 261.423357 127.525065 
z
M 274.69587 127.49207 
C 274.891316 127.474303 275.459884 127.474303 276.434572 127.474303 
C 277.213815 127.474303 277.944832 127.49207 278.594624 127.540293 
L 278.594624 127.118973 
L 278.432176 127.118973 
C 277.716389 127.118973 277.376263 127.004759 277.376263 126.679886 
C 277.376263 126.484454 277.571709 126.159581 277.944832 125.657042 
L 280.203875 122.618967 
L 282.73705 126.030139 
C 282.995952 126.370241 283.14317 126.613896 283.14317 126.776333 
C 283.14317 127.052983 282.932495 127.118973 282.460381 127.118973 
L 282.264935 127.118973 
L 282.264935 127.540293 
C 283.094943 127.507298 283.889416 127.49207 284.686427 127.49207 
C 285.254995 127.49207 285.838793 127.507298 286.407361 127.525065 
L 286.407361 127.134201 
L 286.295678 127.134201 
C 285.531664 127.134201 284.978326 126.469226 284.102629 125.281407 
L 281.178564 121.319473 
L 283.534061 118.233175 
C 284.313304 117.192564 284.897102 116.641802 286.100233 116.591041 
L 286.100233 116.202715 
C 285.189001 116.250939 284.475752 116.266167 283.940181 116.266167 
C 283.353845 116.266167 282.785277 116.250939 282.249706 116.202715 
L 282.249706 116.591041 
C 282.995952 116.672259 283.272621 116.705254 283.272621 117.096117 
C 283.272621 117.372768 283.013719 117.875306 282.493378 118.558048 
L 280.754676 120.783939 
L 278.741843 118.070738 
C 278.366181 117.565661 278.155507 117.225559 278.155507 117.030128 
C 278.155507 116.786472 278.52863 116.608807 279.244416 116.591041 
L 279.244416 116.202715 
C 278.546397 116.266167 277.749386 116.283934 276.840692 116.283934 
C 275.995455 116.283934 275.312665 116.266167 274.777094 116.202715 
L 274.777094 116.608807 
C 275.11722 116.641802 275.411657 116.705254 275.655329 116.819467 
C 276.010684 116.981904 276.239127 117.225559 276.482799 117.550433 
L 279.797755 122.002215 
L 276.840692 125.849936 
C 276.239127 126.631663 275.751783 127.052983 274.69587 127.101206 
L 274.69587 127.49207 
z
" clip-path="url(#pcb748fa874)"/>
   </g>
   <g id="patch_29">
    <path d="M 233.070283 136.699442 
C 233.374873 136.686244 233.693678 136.680153 234.018574 136.680153 
C 234.31098 136.680153 234.584096 136.686244 234.824722 136.699442 
L 234.824722 136.530914 
L 234.798325 136.530914 
C 234.272399 136.530914 234.2592 136.36137 234.2592 135.7634 
L 234.2592 132.372533 
C 234.330271 132.365426 234.39525 132.365426 234.46023 132.365426 
C 235.175001 132.365426 235.578075 132.762381 235.578075 133.477103 
C 235.578075 134.146139 235.247087 134.522789 234.668366 134.522789 
C 234.622678 134.522789 234.584096 134.522789 234.538408 134.516698 
L 234.532316 134.704515 
C 234.609479 134.711622 234.687657 134.717713 234.759743 134.717713 
C 235.669452 134.717713 236.241067 134.165429 236.241067 133.39893 
C 236.241067 132.644614 235.656253 132.157304 234.597295 132.157304 
C 234.330271 132.157304 234.044972 132.177609 233.752565 132.177609 
C 233.569811 132.177609 233.342384 132.170502 233.070283 132.157304 
L 233.070283 132.319741 
C 233.563719 132.346137 233.63479 132.411112 233.63479 132.762381 
L 233.63479 136.017208 
C 233.63479 136.433452 233.55052 136.537005 233.070283 136.537005 
L 233.070283 136.699442 
z
M 238.391878 136.290304 
C 238.39797 136.58269 238.560418 136.751219 238.794953 136.751219 
C 238.957401 136.751219 239.204119 136.634467 239.437638 136.38066 
L 239.35946 136.296396 
C 239.307679 136.348172 239.2427 136.374568 239.15843 136.374568 
C 238.917804 136.374568 238.898513 136.257817 238.898513 136.00401 
L 238.898513 134.496393 
C 238.898513 133.970504 238.664994 133.723804 238.086273 133.723804 
C 237.891335 133.723804 237.598929 133.840555 237.215145 134.081164 
C 236.949137 134.249693 236.805979 134.406038 236.805979 134.639541 
C 236.805979 134.723805 236.838469 134.756292 236.935938 134.756292 
C 237.130875 134.756292 237.247635 134.672028 237.267941 134.516698 
C 237.312614 134.197916 237.462879 134.048677 237.761377 134.048677 
C 238.17765 134.048677 238.37868 134.230403 238.37868 134.620251 
L 238.37868 135.068983 
C 237.241543 135.426344 236.702418 135.633451 236.702418 136.141066 
C 236.702418 136.498426 236.968427 136.764417 237.358303 136.764417 
C 237.657816 136.764417 237.994896 136.60198 238.391878 136.290304 
z
M 238.372588 136.055786 
C 238.170543 136.303502 237.910626 136.433452 237.696398 136.433452 
C 237.430389 136.433452 237.209053 136.218223 237.209053 135.978629 
C 237.209053 135.633451 237.598929 135.478121 238.372588 135.237511 
L 238.372588 136.055786 
z
M 239.691665 136.699442 
C 239.886603 136.686244 240.093724 136.680153 240.321152 136.680153 
C 240.685644 136.680153 241.029831 136.686244 241.32833 136.699442 
L 241.32833 136.543097 
C 240.756716 136.537005 240.653155 136.563401 240.653155 136.212132 
L 240.653155 134.971521 
C 240.653155 134.5035 240.828802 134.276089 241.15979 134.276089 
C 241.341529 134.276089 241.438997 134.425327 241.576063 134.425327 
C 241.738511 134.425327 241.848164 134.295378 241.848164 134.074058 
C 241.848164 133.873042 241.718205 133.749184 241.490778 133.749184 
C 241.186188 133.749184 240.932363 133.964413 240.646048 134.373551 
L 240.646048 133.704514 
L 240.496799 133.704514 
C 240.243989 133.846646 239.990164 133.951215 239.743446 134.022281 
L 239.743446 134.100454 
C 240.126214 134.224312 240.133321 134.347155 240.133321 134.679135 
L 240.133321 136.192842 
C 240.133321 136.478122 240.106923 136.530914 239.691665 136.537005 
L 239.691665 136.699442 
z
M 245.02585 136.699442 
C 245.428924 136.686244 245.727422 136.680153 245.916268 136.680153 
C 246.227966 136.680153 246.552862 136.680153 246.890957 136.699442 
L 246.890957 136.530914 
L 246.806687 136.530914 
C 246.279746 136.530914 246.273654 136.348172 246.273654 135.71873 
L 246.273654 132.430401 
L 246.982334 132.430401 
C 247.57933 132.430401 247.787467 132.456797 247.787467 132.944107 
L 247.787467 132.989792 
L 247.949915 132.989792 
L 248.001695 131.988776 
L 247.865645 131.988776 
C 247.852446 132.124817 247.567147 132.170502 247.007716 132.170502 
L 244.785224 132.170502 
C 244.434945 132.170502 244.2329 132.164411 244.135431 131.994867 
L 243.999381 131.988776 
L 243.92831 133.028371 
L 244.090758 133.034463 
C 244.161829 132.508574 244.395348 132.42431 244.980161 132.42431 
L 245.65026 132.42431 
L 245.65026 136.017208 
C 245.65026 136.426345 245.572081 136.537005 245.11012 136.537005 
L 245.02585 136.537005 
L 245.02585 136.699442 
z
M 248.457362 135.263907 
C 248.457362 136.09538 249.107154 136.770508 249.944777 136.770508 
C 250.821997 136.770508 251.49108 136.055786 251.49108 135.191826 
C 251.49108 134.366444 250.861594 133.723804 249.977267 133.723804 
C 249.107154 133.723804 248.457362 134.379642 248.457362 135.263907 
z
M 249.048267 135.166445 
C 249.048267 134.379642 249.438142 133.892332 249.919395 133.892332 
C 250.47781 133.892332 250.880884 134.398931 250.880884 135.269998 
C 250.880884 136.101472 250.504208 136.58269 250.003665 136.58269 
C 249.470632 136.58269 249.048267 136.043603 249.048267 135.166445 
z
M 254.188123 136.777615 
L 255.12423 136.575584 
L 255.12423 136.433452 
C 255.032853 136.445634 254.954675 136.452741 254.902895 136.452741 
C 254.707957 136.452741 254.701865 136.374568 254.701865 136.147157 
L 254.701865 133.801976 
L 254.539417 133.801976 
L 253.6358 133.873042 
L 253.6358 133.9969 
C 254.058165 134.094362 254.168833 134.165429 254.168833 134.451723 
L 254.168833 136.030406 
C 253.882518 136.296396 253.597219 136.426345 253.369791 136.426345 
C 252.947426 136.426345 252.84285 136.133959 252.84285 135.535989 
L 252.84285 133.801976 
L 252.693601 133.801976 
L 251.940248 133.834464 
L 251.940248 133.970504 
C 252.342307 134.035479 252.342307 134.204007 252.342307 134.607053 
L 252.342307 135.932943 
C 252.342307 136.49132 252.557551 136.770508 252.992099 136.770508 
C 253.310904 136.770508 253.72007 136.60198 254.188123 136.244619 
L 254.188123 136.777615 
z
M 257.261843 136.22533 
C 257.099395 136.348172 256.943039 136.413147 256.799882 136.413147 
C 256.474986 136.413147 256.397823 136.192842 256.397823 135.7634 
L 256.397823 134.17152 
L 257.372511 134.17152 
L 257.372511 133.834464 
L 256.397823 133.834464 
L 256.397823 133.158321 
L 256.325736 133.158321 
C 256.130799 133.50959 255.8323 133.814159 255.461716 134.048677 
L 255.461716 134.17152 
L 255.890173 134.17152 
L 255.890173 135.860862 
C 255.890173 136.498426 255.994749 136.777615 256.501383 136.777615 
C 256.767392 136.777615 257.027309 136.621269 257.352205 136.33599 
L 257.261843 136.22533 
z
M 259.39966 136.290304 
C 259.405752 136.58269 259.5682 136.751219 259.802734 136.751219 
C 259.965182 136.751219 260.2119 136.634467 260.445419 136.38066 
L 260.367241 136.296396 
C 260.315461 136.348172 260.250482 136.374568 260.166212 136.374568 
C 259.925585 136.374568 259.906295 136.257817 259.906295 136.00401 
L 259.906295 134.496393 
C 259.906295 133.970504 259.672776 133.723804 259.094054 133.723804 
C 258.899117 133.723804 258.60671 133.840555 258.222927 134.081164 
C 257.956918 134.249693 257.81376 134.406038 257.81376 134.639541 
C 257.81376 134.723805 257.84625 134.756292 257.943719 134.756292 
C 258.138657 134.756292 258.255416 134.672028 258.275722 134.516698 
C 258.320395 134.197916 258.47066 134.048677 258.769158 134.048677 
C 259.185431 134.048677 259.386461 134.230403 259.386461 134.620251 
L 259.386461 135.068983 
C 258.249324 135.426344 257.7102 135.633451 257.7102 136.141066 
C 257.7102 136.498426 257.976208 136.764417 258.366084 136.764417 
C 258.665598 136.764417 259.002677 136.60198 259.39966 136.290304 
z
M 259.380369 136.055786 
C 259.178324 136.303502 258.918407 136.433452 258.704179 136.433452 
C 258.43817 136.433452 258.216835 136.218223 258.216835 135.978629 
C 258.216835 135.633451 258.60671 135.478121 259.380369 135.237511 
L 259.380369 136.055786 
z
M 262.440687 136.22533 
C 262.278239 136.348172 262.121883 136.413147 261.978725 136.413147 
C 261.653829 136.413147 261.576666 136.192842 261.576666 135.7634 
L 261.576666 134.17152 
L 262.551355 134.17152 
L 262.551355 133.834464 
L 261.576666 133.834464 
L 261.576666 133.158321 
L 261.50458 133.158321 
C 261.309642 133.50959 261.011144 133.814159 260.640559 134.048677 
L 260.640559 134.17152 
L 261.069016 134.17152 
L 261.069016 135.860862 
C 261.069016 136.498426 261.173592 136.777615 261.680227 136.777615 
C 261.946236 136.777615 262.206153 136.621269 262.531049 136.33599 
L 262.440687 136.22533 
z
M 263.206832 132.397914 
C 263.206832 132.57964 263.343898 132.722787 263.525637 132.722787 
C 263.701284 132.722787 263.844441 132.57964 263.844441 132.397914 
C 263.844441 132.216187 263.701284 132.080147 263.525637 132.080147 
C 263.343898 132.080147 263.206832 132.216187 263.206832 132.397914 
z
M 262.837263 136.699442 
C 263.005803 136.686244 263.20074 136.680153 263.414969 136.680153 
C 263.636304 136.680153 263.915512 136.686244 264.240408 136.699442 
L 264.240408 136.543097 
C 263.856625 136.530914 263.798752 136.510609 263.798752 136.212132 
L 263.798752 133.704514 
L 263.642396 133.704514 
C 263.414969 133.834464 263.168251 133.938017 262.895135 134.022281 
L 262.895135 134.100454 
C 263.246429 134.211114 263.278919 134.341063 263.278919 134.600962 
L 263.278919 136.192842 
C 263.278919 136.478122 263.252521 136.530914 262.837263 136.537005 
L 262.837263 136.699442 
z
M 264.617287 136.680153 
C 264.695465 136.673046 264.922892 136.673046 265.312768 136.673046 
C 265.624465 136.673046 265.916871 136.680153 266.176788 136.699442 
L 266.176788 136.530914 
L 266.111809 136.530914 
C 265.825494 136.530914 265.689444 136.485228 265.689444 136.355279 
C 265.689444 136.277106 265.767622 136.147157 265.916871 135.946141 
L 266.820489 134.730911 
L 267.833759 136.09538 
C 267.937319 136.231421 267.996207 136.328883 267.996207 136.393858 
C 267.996207 136.504518 267.911937 136.530914 267.723091 136.530914 
L 267.644913 136.530914 
L 267.644913 136.699442 
C 267.976916 136.686244 268.294705 136.680153 268.61351 136.680153 
C 268.840937 136.680153 269.074456 136.686244 269.301883 136.693351 
L 269.301883 136.537005 
L 269.25721 136.537005 
C 268.951605 136.537005 268.730269 136.271015 268.37999 135.795887 
L 267.210364 134.211114 
L 268.152563 132.976595 
C 268.46426 132.56035 268.697779 132.340045 269.179032 132.319741 
L 269.179032 132.164411 
C 268.814539 132.1837 268.52924 132.189791 268.315011 132.189791 
C 268.080477 132.189791 267.853049 132.1837 267.638821 132.164411 
L 267.638821 132.319741 
C 267.937319 132.352228 268.047987 132.365426 268.047987 132.521772 
C 268.047987 132.632432 267.944427 132.833447 267.73629 133.106544 
L 267.040809 133.9969 
L 266.235676 132.91162 
C 266.085411 132.709589 266.001141 132.573548 266.001141 132.495376 
C 266.001141 132.397914 266.150391 132.326847 266.436705 132.319741 
L 266.436705 132.164411 
C 266.157498 132.189791 265.838693 132.196898 265.475216 132.196898 
C 265.137121 132.196898 264.864005 132.189791 264.649776 132.164411 
L 264.649776 132.326847 
C 264.785827 132.340045 264.903602 132.365426 265.00107 132.411112 
C 265.143213 132.476086 265.23459 132.573548 265.332058 132.703498 
L 266.658041 134.484211 
L 265.475216 136.023299 
C 265.23459 136.33599 265.039652 136.504518 264.617287 136.523807 
L 264.617287 136.680153 
z
" clip-path="url(#pcb748fa874)"/>
   </g>
   <g id="patch_30">
    <path d="M 227.828897 153.705809 
C 228.10912 153.686519 228.381221 153.679413 228.648245 153.679413 
C 228.901054 153.679413 229.187369 153.692611 229.499066 153.705809 
L 229.499066 153.543372 
L 229.434087 153.543372 
C 228.992431 153.543372 228.868565 153.354539 228.868565 152.867229 
L 228.868565 152.516975 
C 228.868565 152.452 228.875672 152.347431 228.881764 152.192101 
L 228.940651 150.099713 
L 230.681891 153.764692 
L 230.817942 153.764692 
C 231.000696 153.199209 231.597692 151.932202 232.592687 149.956565 
L 232.631268 152.692609 
L 232.631268 152.977889 
C 232.631268 153.407331 232.495218 153.530174 232.033256 153.530174 
L 231.962185 153.530174 
L 231.962185 153.705809 
C 232.33277 153.692611 232.676957 153.686519 232.982562 153.686519 
C 233.319642 153.686519 233.644538 153.686519 233.957251 153.705809 
L 233.957251 153.530174 
L 233.911562 153.530174 
C 233.254663 153.530174 233.254663 153.257077 233.242479 152.465198 
L 233.196791 149.950474 
L 233.196791 149.833723 
C 233.196791 149.463164 233.248571 149.333214 233.755206 149.320016 
L 233.755206 149.15758 
C 233.632355 149.170778 233.43031 149.176869 233.131811 149.176869 
C 232.950073 149.176869 232.799808 149.176869 232.676957 149.163671 
L 230.9479 152.790072 
L 229.200568 149.163671 
C 229.063503 149.176869 228.881764 149.176869 228.654336 149.176869 
C 228.453307 149.176869 228.264461 149.176869 228.095921 149.163671 
L 228.095921 149.333214 
C 228.596464 149.358595 228.713224 149.495651 228.713224 149.975855 
L 228.713224 150.093621 
L 228.615755 152.140324 
C 228.596464 152.633726 228.596464 152.997178 228.472598 153.237788 
C 228.375129 153.426621 228.166992 153.510885 227.828897 153.530174 
L 227.828897 153.705809 
z
M 236.029885 153.296671 
C 236.035976 153.589057 236.198424 153.757585 236.432959 153.757585 
C 236.595407 153.757585 236.842125 153.640834 237.075644 153.387027 
L 236.997466 153.302763 
C 236.945686 153.354539 236.880706 153.380935 236.796436 153.380935 
C 236.55581 153.380935 236.536519 153.264184 236.536519 153.010376 
L 236.536519 151.50276 
C 236.536519 150.976871 236.303 150.73017 235.724279 150.73017 
C 235.529341 150.73017 235.236935 150.846922 234.853151 151.087531 
C 234.587143 151.256059 234.443985 151.412405 234.443985 151.645908 
C 234.443985 151.730172 234.476475 151.762659 234.573944 151.762659 
C 234.768881 151.762659 234.885641 151.678395 234.905947 151.523065 
C 234.95062 151.204283 235.100885 151.055044 235.399383 151.055044 
C 235.815656 151.055044 236.016686 151.23677 236.016686 151.626618 
L 236.016686 152.07535 
C 234.879549 152.432711 234.340425 152.639818 234.340425 153.147432 
C 234.340425 153.504793 234.606433 153.770783 234.996309 153.770783 
C 235.295822 153.770783 235.632902 153.608347 236.029885 153.296671 
z
M 236.010594 153.062153 
C 235.808549 153.309869 235.548632 153.439819 235.334404 153.439819 
C 235.068395 153.439819 234.84706 153.22459 234.84706 152.984996 
C 234.84706 152.639818 235.236935 152.484487 236.010594 152.243878 
L 236.010594 153.062153 
z
M 237.329671 153.705809 
C 237.498211 153.692611 237.693149 153.686519 237.907377 153.686519 
C 238.128713 153.686519 238.407921 153.692611 238.732817 153.705809 
L 238.732817 153.549463 
C 238.349033 153.537281 238.291161 153.516976 238.291161 153.218498 
L 238.291161 151.399207 
C 238.564277 151.204283 238.824194 151.112912 239.070912 151.112912 
C 239.558256 151.112912 239.636434 151.386009 239.636434 151.9454 
L 239.636434 153.159615 
C 239.636434 153.491595 239.636434 153.543372 239.206962 153.543372 
L 239.206962 153.705809 
C 239.460787 153.699717 239.694306 153.686519 239.902443 153.686519 
C 240.09738 153.686519 240.311609 153.699717 240.558327 153.705809 
L 240.558327 153.543372 
C 240.16236 153.530174 240.16236 153.484489 240.16236 153.192102 
L 240.16236 151.892608 
C 240.16236 151.133217 240.013111 150.736262 239.42119 150.736262 
C 239.122692 150.736262 238.765306 150.905805 238.284054 151.210374 
L 238.284054 150.710881 
L 238.134805 150.710881 
C 237.907377 150.84083 237.660659 150.944384 237.387544 151.028648 
L 237.387544 151.158597 
C 237.76422 151.282455 237.771327 151.405298 237.771327 151.737278 
L 237.771327 153.199209 
C 237.771327 153.484489 237.744929 153.537281 237.329671 153.543372 
L 237.329671 153.705809 
z
M 243.157902 153.783981 
L 244.094009 153.581951 
L 244.094009 153.439819 
C 244.002632 153.452001 243.924453 153.459108 243.872673 153.459108 
C 243.677735 153.459108 243.671644 153.380935 243.671644 153.153524 
L 243.671644 150.808343 
L 243.509196 150.808343 
L 242.605578 150.879409 
L 242.605578 151.003267 
C 243.027943 151.100729 243.138611 151.171795 243.138611 151.45809 
L 243.138611 153.036772 
C 242.852296 153.302763 242.566997 153.432712 242.339569 153.432712 
C 241.917204 153.432712 241.812629 153.140326 241.812629 152.542355 
L 241.812629 150.808343 
L 241.663379 150.808343 
L 240.910026 150.84083 
L 240.910026 150.976871 
C 241.312085 151.041846 241.312085 151.210374 241.312085 151.61342 
L 241.312085 152.93931 
C 241.312085 153.497687 241.527329 153.776875 241.961878 153.776875 
C 242.280682 153.776875 242.689848 153.608347 243.157902 153.250986 
L 243.157902 153.783981 
z
M 245.542233 153.218498 
L 245.542233 151.165704 
L 246.36158 151.165704 
L 246.36158 150.846922 
L 245.542233 150.846922 
L 245.542233 150.164687 
C 245.542233 149.528138 245.627518 149.222554 246.023485 149.222554 
C 246.192025 149.222554 246.321983 149.326108 246.419452 149.326108 
C 246.537227 149.326108 246.602206 149.228646 246.602206 149.033722 
C 246.602206 148.865193 246.516921 148.787021 246.342289 148.787021 
C 246.094556 148.787021 245.731079 148.989051 245.438672 149.365702 
C 245.165556 149.715956 245.035598 150.183977 245.022399 150.781947 
L 244.574651 151.055044 
L 244.574651 151.165704 
L 245.022399 151.165704 
L 245.022399 153.192102 
C 245.022399 153.504793 244.997016 153.543372 244.522871 153.543372 
L 244.522871 153.705809 
C 244.710702 153.692611 244.977726 153.686519 245.321912 153.686519 
C 245.63361 153.686519 245.912817 153.692611 246.153444 153.705809 
L 246.153444 153.549463 
C 245.63361 153.543372 245.542233 153.55657 245.542233 153.218498 
z
M 248.401928 153.296671 
C 248.408019 153.589057 248.570467 153.757585 248.805002 153.757585 
C 248.96745 153.757585 249.214168 153.640834 249.447687 153.387027 
L 249.369509 153.302763 
C 249.317729 153.354539 249.252749 153.380935 249.168479 153.380935 
C 248.927853 153.380935 248.908562 153.264184 248.908562 153.010376 
L 248.908562 151.50276 
C 248.908562 150.976871 248.675043 150.73017 248.096322 150.73017 
C 247.901384 150.73017 247.608978 150.846922 247.225194 151.087531 
C 246.959186 151.256059 246.816028 151.412405 246.816028 151.645908 
C 246.816028 151.730172 246.848518 151.762659 246.945987 151.762659 
C 247.140924 151.762659 247.257684 151.678395 247.27799 151.523065 
C 247.322663 151.204283 247.472928 151.055044 247.771426 151.055044 
C 248.187699 151.055044 248.388729 151.23677 248.388729 151.626618 
L 248.388729 152.07535 
C 247.251592 152.432711 246.712468 152.639818 246.712468 153.147432 
C 246.712468 153.504793 246.978476 153.770783 247.368352 153.770783 
C 247.667865 153.770783 248.004945 153.608347 248.401928 153.296671 
z
M 248.382637 153.062153 
C 248.180592 153.309869 247.920675 153.439819 247.706447 153.439819 
C 247.440438 153.439819 247.219103 153.22459 247.219103 152.984996 
C 247.219103 152.639818 247.608978 152.484487 248.382637 152.243878 
L 248.382637 153.062153 
z
M 252.150619 152.984996 
C 251.878519 153.2053 251.618602 153.315961 251.345486 153.315961 
C 250.741382 153.315961 250.246931 152.769767 250.246931 152.035756 
C 250.246931 151.399207 250.630714 150.950475 251.098768 150.950475 
C 251.319088 150.950475 251.500827 151.047937 251.676474 151.23677 
C 251.767851 151.334232 251.813539 151.437786 251.955681 151.437786 
C 252.08564 151.437786 252.190216 151.321034 252.190216 151.165704 
C 252.190216 150.905805 251.903901 150.73017 251.377976 150.73017 
C 250.877432 150.73017 250.493649 150.892607 250.168753 151.249968 
C 249.876346 151.561644 249.727097 151.9454 249.727097 152.354538 
C 249.727097 153.172813 250.305818 153.776875 251.03988 153.776875 
C 251.494735 153.776875 251.890702 153.549463 252.255195 153.09464 
L 252.150619 152.984996 
z
M 254.328032 153.231696 
C 254.165584 153.354539 254.009228 153.419514 253.86607 153.419514 
C 253.541174 153.419514 253.464011 153.199209 253.464011 152.769767 
L 253.464011 151.177887 
L 254.4387 151.177887 
L 254.4387 150.84083 
L 253.464011 150.84083 
L 253.464011 150.164687 
L 253.391925 150.164687 
C 253.196987 150.515957 252.898489 150.820526 252.527904 151.055044 
L 252.527904 151.177887 
L 252.956361 151.177887 
L 252.956361 152.867229 
C 252.956361 153.504793 253.060937 153.783981 253.567572 153.783981 
C 253.833581 153.783981 254.093498 153.627636 254.418394 153.342356 
L 254.328032 153.231696 
z
M 256.939994 153.783981 
L 257.876101 153.581951 
L 257.876101 153.439819 
C 257.784724 153.452001 257.706546 153.459108 257.654765 153.459108 
C 257.459828 153.459108 257.453736 153.380935 257.453736 153.153524 
L 257.453736 150.808343 
L 257.291288 150.808343 
L 256.38767 150.879409 
L 256.38767 151.003267 
C 256.810035 151.100729 256.920703 151.171795 256.920703 151.45809 
L 256.920703 153.036772 
C 256.634388 153.302763 256.349089 153.432712 256.121662 153.432712 
C 255.699297 153.432712 255.594721 153.140326 255.594721 152.542355 
L 255.594721 150.808343 
L 255.445471 150.808343 
L 254.692118 150.84083 
L 254.692118 150.976871 
C 255.094177 151.041846 255.094177 151.210374 255.094177 151.61342 
L 255.094177 152.93931 
C 255.094177 153.497687 255.309421 153.776875 255.74397 153.776875 
C 256.062774 153.776875 256.47194 153.608347 256.939994 153.250986 
L 256.939994 153.783981 
z
M 258.272473 153.705809 
C 258.467411 153.692611 258.674532 153.686519 258.90196 153.686519 
C 259.266453 153.686519 259.610639 153.692611 259.909138 153.705809 
L 259.909138 153.549463 
C 259.337524 153.543372 259.233963 153.569768 259.233963 153.218498 
L 259.233963 151.977888 
C 259.233963 151.509867 259.40961 151.282455 259.740598 151.282455 
C 259.922337 151.282455 260.019806 151.431694 260.156871 151.431694 
C 260.319319 151.431694 260.428972 151.301745 260.428972 151.080425 
C 260.428972 150.879409 260.299013 150.755551 260.071586 150.755551 
C 259.766996 150.755551 259.513171 150.97078 259.226856 151.379917 
L 259.226856 150.710881 
L 259.077607 150.710881 
C 258.824797 150.853013 258.570972 150.957582 258.324254 151.028648 
L 258.324254 151.106821 
C 258.707022 151.230679 258.714129 151.353521 258.714129 151.685502 
L 258.714129 153.199209 
C 258.714129 153.484489 258.687731 153.537281 258.272473 153.543372 
L 258.272473 153.705809 
z
M 263.236886 152.932204 
C 262.918082 153.22459 262.619584 153.367737 262.333269 153.367737 
C 261.813435 153.367737 261.39107 152.887534 261.39107 152.12002 
C 261.39107 152.042862 261.397162 151.96469 261.404269 151.880426 
L 263.067331 151.880426 
C 263.256177 151.880426 263.314049 151.860121 263.314049 151.704791 
C 263.314049 151.210374 262.891684 150.73017 262.229708 150.73017 
C 261.514937 150.73017 260.871236 151.412405 260.871236 152.314944 
C 260.871236 153.17992 261.384978 153.783981 262.06726 153.783981 
C 262.573895 153.783981 262.96377 153.537281 263.334355 153.036772 
L 263.236886 152.932204 
z
M 261.429651 151.665197 
C 261.521028 151.198191 261.819527 150.925095 262.18402 150.925095 
C 262.522115 150.925095 262.749542 151.165704 262.749542 151.490577 
C 262.749542 151.653014 262.696746 151.665197 262.508916 151.665197 
L 261.429651 151.665197 
z
M 261.689568 150.365703 
L 261.924103 150.365703 
L 262.8795 149.788037 
C 263.054132 149.677377 263.145509 149.599205 263.145509 149.469255 
C 263.145509 149.333214 263.034841 149.222554 262.904883 149.222554 
C 262.807414 149.222554 262.684563 149.287529 262.566788 149.417478 
L 261.689568 150.365703 
z
M 265.575528 155.180938 
C 265.745083 155.16774 265.946112 155.161648 266.160341 155.161648 
C 266.381676 155.161648 266.660884 155.16774 266.98578 155.180938 
L 266.98578 155.024592 
C 266.601997 155.011394 266.537017 154.986013 266.537017 154.686521 
L 266.537017 153.646925 
C 266.719771 153.732205 266.90151 153.770783 267.089341 153.770783 
C 267.576685 153.770783 267.979759 153.569768 268.311763 153.159615 
C 268.571679 152.841848 268.70773 152.484487 268.70773 152.087533 
C 268.70773 151.288547 268.201095 150.716972 267.564501 150.716972 
C 267.239605 150.716972 266.914709 150.879409 266.530925 151.177887 
L 266.530925 150.710881 
L 266.387768 150.710881 
C 266.160341 150.84083 265.913623 150.944384 265.640507 151.028648 
L 265.640507 151.158597 
C 266.017183 151.282455 266.024291 151.405298 266.024291 151.737278 
L 266.024291 154.654033 
C 266.024291 154.959617 266.005 155.005303 265.575528 155.011394 
L 265.575528 155.180938 
z
M 266.537017 153.107838 
L 266.537017 151.379917 
C 266.752261 151.223572 266.959382 151.145399 267.174626 151.145399 
C 267.733041 151.145399 268.161498 151.620527 268.161498 152.373827 
C 268.161498 153.075351 267.759439 153.55657 267.251789 153.55657 
C 266.998979 153.55657 266.758353 153.407331 266.537017 153.107838 
z
M 270.969209 153.296671 
C 270.975301 153.589057 271.137749 153.757585 271.372284 153.757585 
C 271.534732 153.757585 271.78145 153.640834 272.014969 153.387027 
L 271.936791 153.302763 
C 271.88501 153.354539 271.820031 153.380935 271.735761 153.380935 
C 271.495135 153.380935 271.475844 153.264184 271.475844 153.010376 
L 271.475844 151.50276 
C 271.475844 150.976871 271.242325 150.73017 270.663604 150.73017 
C 270.468666 150.73017 270.17626 150.846922 269.792476 151.087531 
C 269.526467 151.256059 269.38331 151.412405 269.38331 151.645908 
C 269.38331 151.730172 269.4158 151.762659 269.513268 151.762659 
C 269.708206 151.762659 269.824966 151.678395 269.845272 151.523065 
C 269.889945 151.204283 270.040209 151.055044 270.338708 151.055044 
C 270.754981 151.055044 270.95601 151.23677 270.95601 151.626618 
L 270.95601 152.07535 
C 269.818874 152.432711 269.279749 152.639818 269.279749 153.147432 
C 269.279749 153.504793 269.545758 153.770783 269.935633 153.770783 
C 270.235147 153.770783 270.572227 153.608347 270.969209 153.296671 
z
M 270.949919 153.062153 
C 270.747874 153.309869 270.487957 153.439819 270.273729 153.439819 
C 270.00772 153.439819 269.786384 153.22459 269.786384 152.984996 
C 269.786384 152.639818 270.17626 152.484487 270.949919 152.243878 
L 270.949919 153.062153 
z
M 272.268996 153.705809 
C 272.463934 153.692611 272.671055 153.686519 272.898483 153.686519 
C 273.262975 153.686519 273.607162 153.692611 273.905661 153.705809 
L 273.905661 153.549463 
C 273.334046 153.543372 273.230486 153.569768 273.230486 153.218498 
L 273.230486 151.977888 
C 273.230486 151.509867 273.406133 151.282455 273.737121 151.282455 
C 273.918859 151.282455 274.016328 151.431694 274.153394 151.431694 
C 274.315842 151.431694 274.425494 151.301745 274.425494 151.080425 
C 274.425494 150.879409 274.295536 150.755551 274.068109 150.755551 
C 273.763519 150.755551 273.509693 150.97078 273.223379 151.379917 
L 273.223379 150.710881 
L 273.07413 150.710881 
C 272.82132 150.853013 272.567495 150.957582 272.320777 151.028648 
L 272.320777 151.106821 
C 272.703545 151.230679 272.710652 151.353521 272.710652 151.685502 
L 272.710652 153.199209 
C 272.710652 153.484489 272.684254 153.537281 272.268996 153.543372 
L 272.268996 153.705809 
z
" clip-path="url(#pcb748fa874)"/>
   </g>
   <g id="line2d_3">
    <path d="M 205.721944 112.572 
L 296.428887 112.572 
" clip-path="url(#pcb748fa874)" style="fill: none; stroke: #000000; stroke-width: 0.25; stroke-linecap: square"/>
   </g>
   <g id="line2d_4">
    <path d="M 205.721944 111.154803 
L 296.428887 111.154803 
" clip-path="url(#pcb748fa874)" style="fill: none; stroke: #000000; stroke-width: 0.25; stroke-linecap: square"/>
   </g>
  </g>
 </g>
 <defs>
  <clipPath id="pcb748fa874">
   <rect x="0" y="0" width="369.936" height="225.144"/>
  </clipPath>
 </defs>
</svg>
