<svg stroke="black" stroke-width="15"  stroke-linecap="round" width="100%" height="100%" viewBox="0 0 1000 1000" xmlns="http://www.w3.org/2000/svg">
    <g>
        <g stroke-width="50" fill="none" transform="matrix(0.765541,0.0445102,-0.0445102,0.765541,-741.692,-748.07)">
            <path d="M1152.78,1450.01C1246.54,1264.4 1439.01,1137 1661,1137L2014.2,1137"/>
        </g>
        <g stroke-width="30" fill="none" transform="matrix(1,0,0,1,-973.699,-783.575)">
            <g transform="matrix(1,0,0,1,-23,0)">
                <path d="M1701.95,992.995 L1619.84,1162.94"/>
            </g>
            <g transform="matrix(1,0,0,1,-23,0)">
                <path d="M1619.84,988.221 L1558.95,1140.01"/>
            </g>
            <g transform="matrix(1,0,0,1,-23,0)">
                <path d="M1526.42,982.79L1485.64,1125.27"/>
            </g>
            <g transform="matrix(1,0,0,1,-23,0)">
                <path d="M1434.59,979.39 L1409.66,1123.3"/>
            </g>
            <g transform="matrix(1,0,0,1,-23,0)">
                <path d="M1353.29,992.995 L1348.95,1131.25"/>
            </g>
            <g transform="matrix(1,0,0,1,-23,0)">
                <path d="M1272.02,1031.36 L1288.84,1140.01"/>
            </g>
            <g transform="matrix(1,0,0,1,-23,0)">
                <path d="M1210.8,1051.35 L1236.85,1170.7"/>
            </g>
            <g transform="matrix(0.988275,-0.0305496,-0.0305496,0.920406,27.524,131.636)">
                <path d="M1153.52,1085.68 L1195.48,1194.99"/>
            </g>
            <g transform="matrix(0.987454,-0.0238414,-0.0238414,0.954694,20.7161,83.0746)">
                <path d="M1108.13,1140.34 L1153.52,1226.61"/>
            </g>
        </g>
        <g transform="matrix(1,0,0,1,-996.699,-783.575)" fill="black">
            <path d="M1100.85,1707.76C1100.36,1683.25 1097.85,1659.25 1093.47,1635.9C1108.49,1617.99 1117.54,1594.92 1117.54,1569.74C1117.54,1559.3 1115.99,1549.21 1113.09,1539.71C1110.18,1539.26 1107.3,1538.74 1104.45,1538.15L1104.46,1538.14C1086.5,1534.48 1072.97,1518.59 1072.97,1499.56C1072.97,1477.83 1090.61,1460.18 1112.34,1460.18C1125.2,1460.18 1136.62,1466.36 1143.81,1475.9L1143.86,1475.83C1146.63,1479.33 1150.91,1481.58 1155.71,1481.58C1164.05,1481.58 1170.82,1474.81 1170.82,1466.47C1170.82,1459.07 1165.48,1452.9 1158.44,1451.62L1158.45,1451.61C1110.35,1442.62 1073.9,1400.38 1073.9,1349.69C1073.9,1323.49 1083.63,1299.56 1099.68,1281.29C1179.74,1184.33 1300.84,1122.5 1436.27,1122.5C1526.94,1122.5 1611.19,1150.22 1681,1197.63L1681,1197C1681,1111.27 1745.88,1040.56 1829.19,1031.36C1831.89,1043.25 1833.31,1055.63 1833.31,1068.34C1833.31,1134.2 1795.03,1191.19 1739.52,1218.25C1778.43,1230.4 1819.68,1237.25 1862.41,1237.94C1906.58,1214.97 1939.18,1172.79 1949.14,1122.5C1951.22,1133.01 1952.31,1143.88 1952.31,1155C1952.31,1183.36 1945.22,1210.07 1932.7,1233.46C1951.18,1230.78 1969.28,1226.94 1986.93,1222.02C1986.38,1220.44 1986.07,1218.75 1986.07,1216.99C1986.07,1208.66 1992.84,1201.89 2001.17,1201.89C2008.09,1201.89 2013.93,1206.55 2015.71,1212.89L2015.73,1212.89L2015.77,1213.09C2016.01,1214.01 2016.17,1214.96 2016.24,1215.93C2017.58,1224.42 2018.27,1233.13 2018.27,1242C2018.27,1265.73 2013.3,1288.31 2004.35,1308.74C1932.07,1368.5 1840.25,1405.43 1739.97,1408.45L1739.97,1408.66C1708.82,1408.66 1682.92,1431.33 1677.89,1461.06L1677.82,1461.04L1664.75,1543.92C1674.7,1555.15 1680.74,1569.92 1680.74,1586.08C1680.74,1594.53 1679.09,1602.59 1676.1,1609.97C1681.38,1645.26 1693.52,1678.32 1711.11,1707.76L1614.96,1707.76C1612.52,1524.09 1496.34,1367.65 1333.74,1305.75C1330.7,1304.38 1327.33,1303.61 1323.78,1303.61C1310.38,1303.61 1299.51,1314.49 1299.51,1327.88C1299.51,1330.09 1299.81,1332.23 1300.36,1334.26L1300.28,1334.4C1303.54,1347.4 1305.27,1361 1305.27,1375C1305.27,1450.18 1255.39,1513.79 1186.93,1534.53C1171.31,1568.66 1162.61,1606.59 1162.61,1646.54C1162.61,1667.59 1165.02,1688.08 1169.6,1707.76L1100.85,1707.76Z"/>
        </g>
    </g>
</svg>

