<svg id="_0" data-name="0" xmlns="http://www.w3.org/2000/svg" viewBox="0 0 386.22 264.331"><defs><style>.cls-1,.cls-2,.cls-3{fill:none;}.cls-1,.cls-2,.cls-3,.cls-4{stroke:#000;}.cls-1,.cls-4{stroke-linecap:round;stroke-linejoin:round;}.cls-1{stroke-width:0.709px;}.cls-2,.cls-3{stroke-miterlimit:10;}.cls-3{stroke-width:1.5px;}.cls-4{stroke-width:0.5px;fill-rule:evenodd;}.cls-5{font-size:17px;font-family:AGaramondPro-Semibold, Adobe Garamond Pro;font-weight:600;}.cls-6{letter-spacing:-0.036em;}.cls-7{letter-spacing:-0.089em;}.cls-8{letter-spacing:-0.082em;}.cls-9{letter-spacing:0em;}</style></defs><g id="LINE"><line class="cls-1" x1="351.85" y1="0.354" x2="34.37" y2="0.354"/></g><g id="ARC"><path class="cls-1" d="M71.76,34.022A34.016,34.016,0,0,0,37.744,68.038" transform="translate(-37.39 -33.668)"/></g><g id="LINE-2" data-name="LINE"><line class="cls-1" x1="0.354" y1="34.37" x2="0.354" y2="229.961"/></g><g id="ARC-2" data-name="ARC"><path class="cls-1" d="M37.744,263.629A34.015,34.015,0,0,0,71.76,297.644" transform="translate(-37.39 -33.668)"/></g><g id="LINE-3" data-name="LINE"><line class="cls-1" x1="34.37" y1="263.976" x2="351.85" y2="263.976"/></g><g id="ARC-3" data-name="ARC"><path class="cls-1" d="M389.24,297.644a34.015,34.015,0,0,0,34.016-34.015" transform="translate(-37.39 -33.668)"/></g><g id="LINE-4" data-name="LINE"><line class="cls-1" x1="385.866" y1="229.961" x2="385.866" y2="34.37"/></g><g id="ARC-4" data-name="ARC"><path class="cls-1" d="M423.256,68.038A34.016,34.016,0,0,0,389.24,34.022" transform="translate(-37.39 -33.668)"/></g><path class="cls-2" d="M237.026,155.176l-2.71,5.608" transform="translate(-37.39 -33.668)"/><path class="cls-2" d="M234.316,155.018l-2.009,5.009" transform="translate(-37.39 -33.668)"/><path class="cls-2" d="M231.233,154.839l-1.345,4.7" transform="translate(-37.39 -33.668)"/><path class="cls-2" d="M228.2,154.727l-.823,4.749" transform="translate(-37.39 -33.668)"/><path class="cls-2" d="M225.52,155.176l-.143,4.562" transform="translate(-37.39 -33.668)"/><path class="cls-2" d="M222.838,156.442l.693,4.476" transform="translate(-37.39 -33.668)"/><path class="cls-2" d="M220.818,157.1l.859,3.939" transform="translate(-37.39 -33.668)"/><path class="cls-2" d="M219.054,158.564l1.258,3.278" transform="translate(-37.39 -33.668)"/><path class="cls-2" d="M217.516,160.2l1.411,2.682" transform="translate(-37.39 -33.668)"/><path class="cls-3" d="M216.269,161.9a14.406,14.406,0,0,1,13.3-7.161l8.923.519" transform="translate(-37.39 -33.668)"/><path class="cls-4" d="M217.189,178.763a14.358,14.358,0,0,0-.244-2.371,3.4,3.4,0,0,0,.648-3.174c-.1-.015-.191-.032-.285-.052h0a1.3,1.3,0,1,1,1.3-2.054v0a.5.5,0,1,0,.481-.8h0a3.422,3.422,0,0,1-1.94-5.62,14.391,14.391,0,0,1,19.184-2.761v-.021a5.5,5.5,0,0,1,4.891-5.466,5.507,5.507,0,0,1-2.959,6.167,14.37,14.37,0,0,0,4.055.65,5.508,5.508,0,0,0,2.862-3.81,5.512,5.512,0,0,1-.542,3.662,14.266,14.266,0,0,0,1.789-.377.512.512,0,0,1-.028-.166.5.5,0,0,1,.978-.136h0v.007a.577.577,0,0,1,.016.094,5.535,5.535,0,0,1,.067.86,5.463,5.463,0,0,1-.46,2.2,14.329,14.329,0,0,1-8.725,3.291v.007a2.079,2.079,0,0,0-2.048,1.729h0l-.431,2.736a2.1,2.1,0,0,1,.375,2.179,8.831,8.831,0,0,0,1.155,3.227h-3.173a14.412,14.412,0,0,0-9.281-13.266.8.8,0,0,0-1.129.73.814.814,0,0,0,.028.211l0,0a5.5,5.5,0,0,1-3.74,6.6,8.921,8.921,0,0,0-.572,5.716Z" transform="translate(-37.39 -33.668)"/><text class="cls-5" transform="translate(149.662 162.487)"><tspan class="cls-6">T</tspan><tspan x="10.982" y="0">OU</tspan><tspan class="cls-7" x="37.094" y="0">T</tspan><tspan class="cls-8" x="47.175" y="0">A</tspan><tspan class="cls-9" x="56.44" y="0">TIX</tspan></text></svg>